%TF.GenerationSoftware,KiCad,Pcbnew,(6.0.2)*%
%TF.CreationDate,2023-09-05T21:11:47-07:00*%
%TF.ProjectId,parabolic_microphone,70617261-626f-46c6-9963-5f6d6963726f,rev?*%
%TF.SameCoordinates,Original*%
%TF.FileFunction,Copper,L1,Top*%
%TF.FilePolarity,Positive*%
%FSLAX46Y46*%
G04 Gerber Fmt 4.6, Leading zero omitted, Abs format (unit mm)*
G04 Created by KiCad (PCBNEW (6.0.2)) date 2023-09-05 21:11:47*
%MOMM*%
%LPD*%
G01*
G04 APERTURE LIST*
G04 Aperture macros list*
%AMRoundRect*
0 Rectangle with rounded corners*
0 $1 Rounding radius*
0 $2 $3 $4 $5 $6 $7 $8 $9 X,Y pos of 4 corners*
0 Add a 4 corners polygon primitive as box body*
4,1,4,$2,$3,$4,$5,$6,$7,$8,$9,$2,$3,0*
0 Add four circle primitives for the rounded corners*
1,1,$1+$1,$2,$3*
1,1,$1+$1,$4,$5*
1,1,$1+$1,$6,$7*
1,1,$1+$1,$8,$9*
0 Add four rect primitives between the rounded corners*
20,1,$1+$1,$2,$3,$4,$5,0*
20,1,$1+$1,$4,$5,$6,$7,0*
20,1,$1+$1,$6,$7,$8,$9,0*
20,1,$1+$1,$8,$9,$2,$3,0*%
G04 Aperture macros list end*
%TA.AperFunction,SMDPad,CuDef*%
%ADD10R,0.600000X0.540000*%
%TD*%
%TA.AperFunction,SMDPad,CuDef*%
%ADD11RoundRect,0.250000X-0.250000X-0.475000X0.250000X-0.475000X0.250000X0.475000X-0.250000X0.475000X0*%
%TD*%
%TA.AperFunction,SMDPad,CuDef*%
%ADD12RoundRect,0.250000X-0.650000X0.325000X-0.650000X-0.325000X0.650000X-0.325000X0.650000X0.325000X0*%
%TD*%
%TA.AperFunction,ComponentPad*%
%ADD13R,1.700000X1.700000*%
%TD*%
%TA.AperFunction,SMDPad,CuDef*%
%ADD14R,1.500000X1.000000*%
%TD*%
%TA.AperFunction,SMDPad,CuDef*%
%ADD15RoundRect,0.250000X0.250000X0.475000X-0.250000X0.475000X-0.250000X-0.475000X0.250000X-0.475000X0*%
%TD*%
%TA.AperFunction,SMDPad,CuDef*%
%ADD16RoundRect,0.250000X0.262500X0.450000X-0.262500X0.450000X-0.262500X-0.450000X0.262500X-0.450000X0*%
%TD*%
%TA.AperFunction,SMDPad,CuDef*%
%ADD17RoundRect,0.250000X0.325000X0.650000X-0.325000X0.650000X-0.325000X-0.650000X0.325000X-0.650000X0*%
%TD*%
%TA.AperFunction,ComponentPad*%
%ADD18O,1.700000X1.700000*%
%TD*%
%TA.AperFunction,SMDPad,CuDef*%
%ADD19R,1.200000X2.500000*%
%TD*%
%TA.AperFunction,SMDPad,CuDef*%
%ADD20RoundRect,0.250000X-0.450000X0.262500X-0.450000X-0.262500X0.450000X-0.262500X0.450000X0.262500X0*%
%TD*%
%TA.AperFunction,SMDPad,CuDef*%
%ADD21RoundRect,0.250000X-0.475000X0.250000X-0.475000X-0.250000X0.475000X-0.250000X0.475000X0.250000X0*%
%TD*%
%TA.AperFunction,SMDPad,CuDef*%
%ADD22RoundRect,0.150000X-0.150000X0.825000X-0.150000X-0.825000X0.150000X-0.825000X0.150000X0.825000X0*%
%TD*%
%TA.AperFunction,SMDPad,CuDef*%
%ADD23R,0.400000X1.350000*%
%TD*%
%TA.AperFunction,ComponentPad*%
%ADD24O,1.200000X1.900000*%
%TD*%
%TA.AperFunction,ComponentPad*%
%ADD25C,1.450000*%
%TD*%
%TA.AperFunction,SMDPad,CuDef*%
%ADD26R,1.500000X1.900000*%
%TD*%
%TA.AperFunction,SMDPad,CuDef*%
%ADD27R,1.200000X1.900000*%
%TD*%
%TA.AperFunction,SMDPad,CuDef*%
%ADD28R,1.000000X1.500000*%
%TD*%
%TA.AperFunction,SMDPad,CuDef*%
%ADD29RoundRect,0.150000X0.150000X-0.825000X0.150000X0.825000X-0.150000X0.825000X-0.150000X-0.825000X0*%
%TD*%
%TA.AperFunction,ComponentPad*%
%ADD30C,1.440000*%
%TD*%
%TA.AperFunction,ViaPad*%
%ADD31C,0.600000*%
%TD*%
%TA.AperFunction,ViaPad*%
%ADD32C,0.800000*%
%TD*%
%TA.AperFunction,Conductor*%
%ADD33C,0.250000*%
%TD*%
%TA.AperFunction,Conductor*%
%ADD34C,0.400000*%
%TD*%
G04 APERTURE END LIST*
%TO.C,JP1*%
G36*
X100676000Y-57146000D02*
G01*
X100276000Y-57146000D01*
X100276000Y-56646000D01*
X100676000Y-56646000D01*
X100676000Y-57146000D01*
G37*
G36*
X99876000Y-57146000D02*
G01*
X99476000Y-57146000D01*
X99476000Y-56646000D01*
X99876000Y-56646000D01*
X99876000Y-57146000D01*
G37*
%TD*%
D10*
%TO.P,U4,1,OUT*%
%TO.N,Net-(C6-Pad2)*%
X70849000Y-48240000D03*
%TO.P,U4,2,GND*%
%TO.N,GND*%
X70849000Y-50170000D03*
%TO.P,U4,3,GND*%
X71899000Y-50170000D03*
%TO.P,U4,4,VDD*%
%TO.N,VCC*%
X71899000Y-48240000D03*
%TD*%
D11*
%TO.P,C1,1*%
%TO.N,VCC*%
X78806000Y-43922000D03*
%TO.P,C1,2*%
%TO.N,GND*%
X80706000Y-43922000D03*
%TD*%
D12*
%TO.P,C6,1*%
%TO.N,Net-(C6-Pad1)*%
X74168000Y-47527000D03*
%TO.P,C6,2*%
%TO.N,Net-(C6-Pad2)*%
X74168000Y-50477000D03*
%TD*%
D13*
%TO.P,J3,1,Pin_1*%
%TO.N,Net-(C6-Pad2)*%
X69596000Y-43535600D03*
%TD*%
D14*
%TO.P,JP1,1,A*%
%TO.N,Net-(C7-Pad1)*%
X100076000Y-56246000D03*
%TO.P,JP1,2,B*%
%TO.N,Net-(J6-PadR1)*%
X100076000Y-57546000D03*
%TD*%
D15*
%TO.P,C2,1*%
%TO.N,VCC*%
X90866000Y-43942000D03*
%TO.P,C2,2*%
%TO.N,GND*%
X88966000Y-43942000D03*
%TD*%
D13*
%TO.P,J7,1,Pin_1*%
%TO.N,Net-(J7-Pad1)*%
X85852000Y-67975800D03*
%TD*%
D16*
%TO.P,R4,1*%
%TO.N,Net-(JP2-Pad1)*%
X82954500Y-59670000D03*
%TO.P,R4,2*%
%TO.N,Net-(R4-Pad2)*%
X81129500Y-59670000D03*
%TD*%
D17*
%TO.P,C7,1*%
%TO.N,Net-(C7-Pad1)*%
X100281000Y-52070000D03*
%TO.P,C7,2*%
%TO.N,Net-(C7-Pad2)*%
X97331000Y-52070000D03*
%TD*%
D16*
%TO.P,R9,1*%
%TO.N,Net-(C7-Pad2)*%
X96670500Y-55372000D03*
%TO.P,R9,2*%
%TO.N,Net-(R9-Pad2)*%
X94845500Y-55372000D03*
%TD*%
D13*
%TO.P,J1,1,Pin_1*%
%TO.N,VCC*%
X69596000Y-53848000D03*
D18*
%TO.P,J1,2,Pin_2*%
%TO.N,GND*%
X69596000Y-56388000D03*
%TD*%
D16*
%TO.P,R10,1*%
%TO.N,Net-(C7-Pad2)*%
X96670500Y-57658000D03*
%TO.P,R10,2*%
%TO.N,Net-(R10-Pad2)*%
X94845500Y-57658000D03*
%TD*%
D19*
%TO.P,J6,R1*%
%TO.N,Net-(J6-PadR1)*%
X108573000Y-58368000D03*
%TO.P,J6,R2*%
%TO.N,GND*%
X111573000Y-58368000D03*
%TO.P,J6,S*%
X103473000Y-51868000D03*
%TO.P,J6,T*%
%TO.N,Net-(J6-PadR1)*%
X104573000Y-58368000D03*
%TD*%
D20*
%TO.P,R3,1*%
%TO.N,Net-(C6-Pad1)*%
X76708000Y-49359500D03*
%TO.P,R3,2*%
%TO.N,GND*%
X76708000Y-51184500D03*
%TD*%
D12*
%TO.P,C8,1*%
%TO.N,Net-(C8-Pad1)*%
X71120000Y-59465000D03*
%TO.P,C8,2*%
%TO.N,GND*%
X71120000Y-62415000D03*
%TD*%
D15*
%TO.P,C3,1*%
%TO.N,VCC*%
X92898000Y-62992000D03*
%TO.P,C3,2*%
%TO.N,GND*%
X90998000Y-62992000D03*
%TD*%
D20*
%TO.P,R1,1*%
%TO.N,VCC*%
X76708000Y-45803500D03*
%TO.P,R1,2*%
%TO.N,Net-(C6-Pad1)*%
X76708000Y-47628500D03*
%TD*%
D14*
%TO.P,JP2,1,A*%
%TO.N,Net-(JP2-Pad1)*%
X82804000Y-57272000D03*
%TO.P,JP2,2,B*%
%TO.N,Net-(J7-Pad1)*%
X82804000Y-55972000D03*
%TD*%
D16*
%TO.P,R2,1*%
%TO.N,Net-(C7-Pad2)*%
X86510500Y-46208000D03*
%TO.P,R2,2*%
%TO.N,Net-(JP3-Pad2)*%
X84685500Y-46208000D03*
%TD*%
D21*
%TO.P,C4,1*%
%TO.N,VCC*%
X74041000Y-54422000D03*
%TO.P,C4,2*%
%TO.N,GND*%
X74041000Y-56322000D03*
%TD*%
D16*
%TO.P,R6,1*%
%TO.N,Net-(C7-Pad2)*%
X86510500Y-43922000D03*
%TO.P,R6,2*%
%TO.N,Net-(R6-Pad2)*%
X84685500Y-43922000D03*
%TD*%
D22*
%TO.P,U2,1*%
%TO.N,Net-(R7-Pad2)*%
X92837000Y-46293000D03*
%TO.P,U2,2,-*%
X91567000Y-46293000D03*
%TO.P,U2,3,+*%
%TO.N,Net-(JP3-Pad2)*%
X90297000Y-46293000D03*
%TO.P,U2,4,V-*%
%TO.N,GND*%
X89027000Y-46293000D03*
%TO.P,U2,5,+*%
%TO.N,Net-(JP3-Pad2)*%
X89027000Y-51243000D03*
%TO.P,U2,6,-*%
%TO.N,Net-(R8-Pad2)*%
X90297000Y-51243000D03*
%TO.P,U2,7*%
X91567000Y-51243000D03*
%TO.P,U2,8,V+*%
%TO.N,VCC*%
X92837000Y-51243000D03*
%TD*%
D13*
%TO.P,J2,1,Pin_1*%
%TO.N,Net-(C7-Pad1)*%
X103398000Y-36932000D03*
D18*
%TO.P,J2,2,Pin_2*%
%TO.N,GND*%
X105938000Y-36932000D03*
%TD*%
D23*
%TO.P,J8,1,VBUS*%
%TO.N,VCC*%
X83540000Y-37498000D03*
%TO.P,J8,2,D-*%
%TO.N,unconnected-(J8-Pad2)*%
X82890000Y-37498000D03*
%TO.P,J8,3,D+*%
%TO.N,unconnected-(J8-Pad3)*%
X82240000Y-37498000D03*
%TO.P,J8,4,ID*%
%TO.N,unconnected-(J8-Pad4)*%
X81590000Y-37498000D03*
%TO.P,J8,5,GND*%
%TO.N,GND*%
X80940000Y-37498000D03*
D24*
%TO.P,J8,6,Shield*%
%TO.N,unconnected-(J8-Pad6)*%
X85740000Y-34798000D03*
D25*
X84740000Y-37498000D03*
D26*
X83240000Y-34798000D03*
D27*
X79340000Y-34798000D03*
D24*
X78740000Y-34798000D03*
D27*
X85140000Y-34798000D03*
D26*
X81240000Y-34798000D03*
D25*
X79740000Y-37498000D03*
%TD*%
D16*
%TO.P,R5,1*%
%TO.N,Net-(J7-Pad1)*%
X80668500Y-53574000D03*
%TO.P,R5,2*%
%TO.N,Net-(JP3-Pad2)*%
X78843500Y-53574000D03*
%TD*%
D22*
%TO.P,U3,1*%
%TO.N,Net-(R9-Pad2)*%
X92837000Y-55437000D03*
%TO.P,U3,2,-*%
X91567000Y-55437000D03*
%TO.P,U3,3,+*%
%TO.N,Net-(JP3-Pad2)*%
X90297000Y-55437000D03*
%TO.P,U3,4,V-*%
%TO.N,GND*%
X89027000Y-55437000D03*
%TO.P,U3,5,+*%
%TO.N,Net-(JP3-Pad2)*%
X89027000Y-60387000D03*
%TO.P,U3,6,-*%
%TO.N,Net-(R10-Pad2)*%
X90297000Y-60387000D03*
%TO.P,U3,7*%
X91567000Y-60387000D03*
%TO.P,U3,8,V+*%
%TO.N,VCC*%
X92837000Y-60387000D03*
%TD*%
D13*
%TO.P,J5,1,Pin_1*%
%TO.N,Net-(C7-Pad2)*%
X98445000Y-37059000D03*
%TD*%
D28*
%TO.P,JP3,1,A*%
%TO.N,Net-(J7-Pad1)*%
X80406000Y-55860000D03*
%TO.P,JP3,2,B*%
%TO.N,Net-(JP3-Pad2)*%
X79106000Y-55860000D03*
%TD*%
D16*
%TO.P,R7,1*%
%TO.N,Net-(C7-Pad2)*%
X96670500Y-45974000D03*
%TO.P,R7,2*%
%TO.N,Net-(R7-Pad2)*%
X94845500Y-45974000D03*
%TD*%
D29*
%TO.P,U1,1*%
%TO.N,Net-(JP3-Pad2)*%
X78867000Y-51223000D03*
%TO.P,U1,2,-*%
%TO.N,Net-(J7-Pad1)*%
X80137000Y-51223000D03*
%TO.P,U1,3,+*%
%TO.N,Net-(C6-Pad1)*%
X81407000Y-51223000D03*
%TO.P,U1,4,V-*%
%TO.N,GND*%
X82677000Y-51223000D03*
%TO.P,U1,5,+*%
%TO.N,Net-(JP3-Pad2)*%
X82677000Y-46273000D03*
%TO.P,U1,6,-*%
%TO.N,Net-(R6-Pad2)*%
X81407000Y-46273000D03*
%TO.P,U1,7*%
X80137000Y-46273000D03*
%TO.P,U1,8,V+*%
%TO.N,VCC*%
X78867000Y-46273000D03*
%TD*%
D30*
%TO.P,RV1,1,1*%
%TO.N,Net-(R4-Pad2)*%
X78994000Y-59670000D03*
%TO.P,RV1,2,2*%
X76454000Y-62210000D03*
%TO.P,RV1,3,3*%
%TO.N,Net-(C8-Pad1)*%
X73914000Y-59670000D03*
%TD*%
D16*
%TO.P,R8,1*%
%TO.N,Net-(C7-Pad2)*%
X96670500Y-48514000D03*
%TO.P,R8,2*%
%TO.N,Net-(R8-Pad2)*%
X94845500Y-48514000D03*
%TD*%
D13*
%TO.P,J4,1,Pin_1*%
%TO.N,Net-(C6-Pad1)*%
X73406000Y-43535600D03*
%TD*%
D21*
%TO.P,C5,1*%
%TO.N,VCC*%
X68834000Y-48306000D03*
%TO.P,C5,2*%
%TO.N,GND*%
X68834000Y-50206000D03*
%TD*%
D31*
%TO.N,VCC*%
X69596000Y-47224000D03*
X92837000Y-49403000D03*
X93788000Y-60387000D03*
D32*
X83540000Y-38989000D03*
D31*
X71882000Y-47478000D03*
X92075000Y-44450000D03*
X74041000Y-53467000D03*
X94107000Y-62992000D03*
X77724000Y-43922000D03*
%TO.N,GND*%
X89789000Y-62230000D03*
X89027000Y-57404000D03*
X81915000Y-43922000D03*
X71120000Y-63861000D03*
X103473000Y-49689000D03*
X82677000Y-52939000D03*
X72009000Y-51034000D03*
X70866000Y-51034000D03*
X111573000Y-56455000D03*
X74041000Y-57404000D03*
X75565000Y-51923000D03*
X68834000Y-51288000D03*
X88011000Y-46228000D03*
D32*
X80940000Y-38948000D03*
D31*
X87757000Y-43942000D03*
%TO.N,Net-(JP3-Pad2)*%
X77724000Y-55860000D03*
X84455000Y-54717000D03*
%TD*%
D33*
%TO.N,VCC*%
X92837000Y-51243000D02*
X92837000Y-49403000D01*
X92837000Y-60387000D02*
X92837000Y-62931000D01*
X78397500Y-45803500D02*
X78867000Y-46273000D01*
X92837000Y-60387000D02*
X93788000Y-60387000D01*
X78806000Y-43922000D02*
X77724000Y-43922000D01*
X76708000Y-45803500D02*
X78397500Y-45803500D01*
X78867000Y-43983000D02*
X78806000Y-43922000D01*
X92898000Y-62992000D02*
X94107000Y-62992000D01*
X68834000Y-48306000D02*
X68834000Y-47986000D01*
X90866000Y-43942000D02*
X91567000Y-43942000D01*
X92837000Y-62931000D02*
X92898000Y-62992000D01*
X91567000Y-43942000D02*
X92075000Y-44450000D01*
X74041000Y-53467000D02*
X74041000Y-54422000D01*
X68834000Y-47986000D02*
X69596000Y-47224000D01*
X71899000Y-48240000D02*
X71899000Y-47495000D01*
X78867000Y-46273000D02*
X78867000Y-43983000D01*
D34*
X83540000Y-37498000D02*
X83540000Y-38989000D01*
D33*
X71899000Y-47495000D02*
X71882000Y-47478000D01*
%TO.N,GND*%
X89027000Y-55437000D02*
X89027000Y-57404000D01*
X89027000Y-46293000D02*
X88076000Y-46293000D01*
X76708000Y-51184500D02*
X76303500Y-51184500D01*
X88076000Y-46293000D02*
X88011000Y-46228000D01*
X111573000Y-58368000D02*
X111573000Y-56455000D01*
X71899000Y-50924000D02*
X72009000Y-51034000D01*
D34*
X80940000Y-37498000D02*
X80940000Y-38948000D01*
D33*
X90551000Y-62992000D02*
X89789000Y-62230000D01*
X68834000Y-50206000D02*
X68834000Y-51288000D01*
X89027000Y-44003000D02*
X88966000Y-43942000D01*
X70849000Y-51017000D02*
X70866000Y-51034000D01*
X88966000Y-43942000D02*
X87757000Y-43942000D01*
X80706000Y-43922000D02*
X81915000Y-43922000D01*
X71899000Y-50170000D02*
X71899000Y-50924000D01*
X103473000Y-51868000D02*
X103473000Y-49689000D01*
X71120000Y-62415000D02*
X71120000Y-63861000D01*
X82677000Y-51223000D02*
X82677000Y-52939000D01*
X90998000Y-62992000D02*
X90551000Y-62992000D01*
X70849000Y-50170000D02*
X71899000Y-50170000D01*
X70849000Y-50170000D02*
X70849000Y-50890000D01*
X76303500Y-51184500D02*
X75565000Y-51923000D01*
X70849000Y-50890000D02*
X70849000Y-51017000D01*
X74041000Y-56322000D02*
X74041000Y-57404000D01*
X89027000Y-46293000D02*
X89027000Y-44003000D01*
%TO.N,Net-(R4-Pad2)*%
X76454000Y-62210000D02*
X78994000Y-59670000D01*
X81129500Y-59670000D02*
X78994000Y-59670000D01*
%TO.N,Net-(R6-Pad2)*%
X81407000Y-45573000D02*
X83058000Y-43922000D01*
X81407000Y-46273000D02*
X81407000Y-45573000D01*
X80137000Y-46273000D02*
X81407000Y-46273000D01*
X83058000Y-43922000D02*
X84685500Y-43922000D01*
%TO.N,Net-(C6-Pad1)*%
X81407000Y-49764000D02*
X81407000Y-51223000D01*
X73406000Y-43535600D02*
X73406000Y-46765000D01*
X76731500Y-49383000D02*
X81026000Y-49383000D01*
X74168000Y-47527000D02*
X76606500Y-47527000D01*
X73406000Y-46765000D02*
X74168000Y-47527000D01*
X76708000Y-47628500D02*
X76708000Y-49359500D01*
X76606500Y-47527000D02*
X76708000Y-47628500D01*
X81026000Y-49383000D02*
X81407000Y-49764000D01*
X76708000Y-49359500D02*
X76731500Y-49383000D01*
%TO.N,Net-(C6-Pad2)*%
X69596000Y-45192000D02*
X70866000Y-46462000D01*
X70849000Y-48240000D02*
X70849000Y-48477000D01*
X70866000Y-48223000D02*
X70849000Y-48240000D01*
X74168000Y-50018000D02*
X74168000Y-50477000D01*
X71501000Y-49129000D02*
X73279000Y-49129000D01*
X70866000Y-46462000D02*
X70866000Y-48223000D01*
X69596000Y-43535600D02*
X69596000Y-45192000D01*
X73279000Y-49129000D02*
X74168000Y-50018000D01*
X70849000Y-48477000D02*
X71501000Y-49129000D01*
%TO.N,Net-(C7-Pad1)*%
X103398000Y-47478000D02*
X103398000Y-36932000D01*
X100076000Y-56246000D02*
X100076000Y-52275000D01*
X100281000Y-52070000D02*
X100281000Y-50595000D01*
X100281000Y-50595000D02*
X103398000Y-47478000D01*
X100076000Y-52275000D02*
X100281000Y-52070000D01*
%TO.N,Net-(C7-Pad2)*%
X87376000Y-42144000D02*
X92840500Y-42144000D01*
X86510500Y-43922000D02*
X86510500Y-43009500D01*
X86510500Y-43009500D02*
X87376000Y-42144000D01*
X98445000Y-44199500D02*
X98445000Y-37059000D01*
X96670500Y-57658000D02*
X96670500Y-55372000D01*
X92840500Y-42144000D02*
X96670500Y-45974000D01*
X97331000Y-54711500D02*
X96670500Y-55372000D01*
X97331000Y-49174500D02*
X97331000Y-52070000D01*
X97331000Y-52070000D02*
X97331000Y-54711500D01*
X86510500Y-46208000D02*
X86510500Y-43922000D01*
X96670500Y-48514000D02*
X96670500Y-45974000D01*
X96670500Y-45974000D02*
X98445000Y-44199500D01*
X96670500Y-48514000D02*
X97331000Y-49174500D01*
%TO.N,Net-(C8-Pad1)*%
X71325000Y-59670000D02*
X71120000Y-59465000D01*
X73914000Y-59670000D02*
X71325000Y-59670000D01*
%TO.N,Net-(J6-PadR1)*%
X103751000Y-57546000D02*
X104573000Y-58368000D01*
X100076000Y-57546000D02*
X103751000Y-57546000D01*
X104573000Y-58368000D02*
X108573000Y-58368000D01*
%TO.N,Net-(J7-Pad1)*%
X82692000Y-55860000D02*
X82804000Y-55972000D01*
X80406000Y-53836500D02*
X80668500Y-53574000D01*
X85852000Y-58020000D02*
X85852000Y-67975800D01*
X80668500Y-53574000D02*
X80668500Y-51754500D01*
X80406000Y-55860000D02*
X80406000Y-53836500D01*
X82804000Y-55972000D02*
X83804000Y-55972000D01*
X80668500Y-51754500D02*
X80137000Y-51223000D01*
X80406000Y-55860000D02*
X82692000Y-55860000D01*
X83804000Y-55972000D02*
X85852000Y-58020000D01*
%TO.N,Net-(JP2-Pad1)*%
X82804000Y-59519500D02*
X82954500Y-59670000D01*
X82804000Y-57272000D02*
X82804000Y-59519500D01*
%TO.N,Net-(JP3-Pad2)*%
X87795500Y-52474500D02*
X84705500Y-52474500D01*
X89027000Y-60387000D02*
X89027000Y-58674000D01*
X89027000Y-58674000D02*
X90297000Y-57404000D01*
X78867000Y-51223000D02*
X78867000Y-53550500D01*
X90297000Y-55437000D02*
X90297000Y-53848000D01*
X89027000Y-51243000D02*
X87795500Y-52474500D01*
X90297000Y-46293000D02*
X90297000Y-47879000D01*
X84455000Y-54717000D02*
X84455000Y-52685000D01*
X78867000Y-53550500D02*
X78843500Y-53574000D01*
X89027000Y-52578000D02*
X89027000Y-51243000D01*
X84620500Y-46273000D02*
X84685500Y-46208000D01*
X89027000Y-49149000D02*
X89027000Y-51243000D01*
X78843500Y-55597500D02*
X79106000Y-55860000D01*
X90297000Y-57404000D02*
X90297000Y-55437000D01*
X90297000Y-53848000D02*
X89027000Y-52578000D01*
X84685500Y-46208000D02*
X84685500Y-52454500D01*
X90297000Y-47879000D02*
X89027000Y-49149000D01*
X84705500Y-52474500D02*
X84685500Y-52454500D01*
X78843500Y-53574000D02*
X78843500Y-55597500D01*
X82677000Y-46273000D02*
X84620500Y-46273000D01*
X84455000Y-52685000D02*
X84685500Y-52454500D01*
X79106000Y-55860000D02*
X77724000Y-55860000D01*
%TO.N,Net-(R7-Pad2)*%
X92837000Y-46293000D02*
X91567000Y-46293000D01*
X93156000Y-45974000D02*
X92837000Y-46293000D01*
X94845500Y-45974000D02*
X93156000Y-45974000D01*
%TO.N,Net-(R8-Pad2)*%
X94845500Y-48514000D02*
X91821000Y-48514000D01*
X90297000Y-51243000D02*
X91567000Y-51243000D01*
X91567000Y-48768000D02*
X91567000Y-51243000D01*
X91821000Y-48514000D02*
X91567000Y-48768000D01*
%TO.N,Net-(R9-Pad2)*%
X94845500Y-55372000D02*
X94780500Y-55437000D01*
X94780500Y-55437000D02*
X91567000Y-55437000D01*
%TO.N,Net-(R10-Pad2)*%
X94845500Y-57658000D02*
X93919928Y-57658000D01*
X91567000Y-60010928D02*
X91567000Y-60387000D01*
X93919928Y-57658000D02*
X91567000Y-60010928D01*
X90297000Y-60387000D02*
X91567000Y-60387000D01*
D34*
%TO.N,unconnected-(J8-Pad6)*%
X79740000Y-35798000D02*
X78740000Y-34798000D01*
X79740000Y-37498000D02*
X79740000Y-35798000D01*
X85740000Y-34798000D02*
X78740000Y-34798000D01*
X84740000Y-37498000D02*
X84740000Y-35798000D01*
X84740000Y-35798000D02*
X85740000Y-34798000D01*
%TD*%
M02*
