%TF.GenerationSoftware,KiCad,Pcbnew,(6.0.2)*%
%TF.CreationDate,2023-09-05T21:11:47-07:00*%
%TF.ProjectId,parabolic_microphone,70617261-626f-46c6-9963-5f6d6963726f,rev?*%
%TF.SameCoordinates,Original*%
%TF.FileFunction,Soldermask,Top*%
%TF.FilePolarity,Negative*%
%FSLAX46Y46*%
G04 Gerber Fmt 4.6, Leading zero omitted, Abs format (unit mm)*
G04 Created by KiCad (PCBNEW (6.0.2)) date 2023-09-05 21:11:47*
%MOMM*%
%LPD*%
G01*
G04 APERTURE LIST*
G04 Aperture macros list*
%AMRoundRect*
0 Rectangle with rounded corners*
0 $1 Rounding radius*
0 $2 $3 $4 $5 $6 $7 $8 $9 X,Y pos of 4 corners*
0 Add a 4 corners polygon primitive as box body*
4,1,4,$2,$3,$4,$5,$6,$7,$8,$9,$2,$3,0*
0 Add four circle primitives for the rounded corners*
1,1,$1+$1,$2,$3*
1,1,$1+$1,$4,$5*
1,1,$1+$1,$6,$7*
1,1,$1+$1,$8,$9*
0 Add four rect primitives between the rounded corners*
20,1,$1+$1,$2,$3,$4,$5,0*
20,1,$1+$1,$4,$5,$6,$7,0*
20,1,$1+$1,$6,$7,$8,$9,0*
20,1,$1+$1,$8,$9,$2,$3,0*%
G04 Aperture macros list end*
%ADD10R,0.600000X0.540000*%
%ADD11RoundRect,0.250000X-0.250000X-0.475000X0.250000X-0.475000X0.250000X0.475000X-0.250000X0.475000X0*%
%ADD12RoundRect,0.250000X-0.650000X0.325000X-0.650000X-0.325000X0.650000X-0.325000X0.650000X0.325000X0*%
%ADD13R,1.700000X1.700000*%
%ADD14R,1.500000X1.000000*%
%ADD15RoundRect,0.250000X0.250000X0.475000X-0.250000X0.475000X-0.250000X-0.475000X0.250000X-0.475000X0*%
%ADD16C,2.200000*%
%ADD17RoundRect,0.250000X0.262500X0.450000X-0.262500X0.450000X-0.262500X-0.450000X0.262500X-0.450000X0*%
%ADD18RoundRect,0.250000X0.325000X0.650000X-0.325000X0.650000X-0.325000X-0.650000X0.325000X-0.650000X0*%
%ADD19O,1.700000X1.700000*%
%ADD20C,1.500000*%
%ADD21R,1.200000X2.500000*%
%ADD22RoundRect,0.250000X-0.450000X0.262500X-0.450000X-0.262500X0.450000X-0.262500X0.450000X0.262500X0*%
%ADD23RoundRect,0.250000X-0.475000X0.250000X-0.475000X-0.250000X0.475000X-0.250000X0.475000X0.250000X0*%
%ADD24RoundRect,0.150000X-0.150000X0.825000X-0.150000X-0.825000X0.150000X-0.825000X0.150000X0.825000X0*%
%ADD25R,0.400000X1.350000*%
%ADD26O,1.200000X1.900000*%
%ADD27C,1.450000*%
%ADD28R,1.500000X1.900000*%
%ADD29R,1.200000X1.900000*%
%ADD30R,1.000000X1.500000*%
%ADD31RoundRect,0.150000X0.150000X-0.825000X0.150000X0.825000X-0.150000X0.825000X-0.150000X-0.825000X0*%
%ADD32C,1.440000*%
G04 APERTURE END LIST*
D10*
%TO.C,U4*%
X70849000Y-48240000D03*
X70849000Y-50170000D03*
X71899000Y-50170000D03*
X71899000Y-48240000D03*
%TD*%
D11*
%TO.C,C1*%
X78806000Y-43922000D03*
X80706000Y-43922000D03*
%TD*%
D12*
%TO.C,C6*%
X74168000Y-47527000D03*
X74168000Y-50477000D03*
%TD*%
D13*
%TO.C,J3*%
X69596000Y-43535600D03*
%TD*%
D14*
%TO.C,JP1*%
X100076000Y-56246000D03*
X100076000Y-57546000D03*
%TD*%
D15*
%TO.C,C2*%
X90866000Y-43942000D03*
X88966000Y-43942000D03*
%TD*%
D13*
%TO.C,J7*%
X85852000Y-67975800D03*
%TD*%
D16*
%TO.C,H2*%
X111379000Y-36830000D03*
%TD*%
D17*
%TO.C,R4*%
X82954500Y-59670000D03*
X81129500Y-59670000D03*
%TD*%
D18*
%TO.C,C7*%
X100281000Y-52070000D03*
X97331000Y-52070000D03*
%TD*%
D17*
%TO.C,R9*%
X96670500Y-55372000D03*
X94845500Y-55372000D03*
%TD*%
D16*
%TO.C,H4*%
X70993000Y-36830000D03*
%TD*%
D13*
%TO.C,J1*%
X69596000Y-53848000D03*
D19*
X69596000Y-56388000D03*
%TD*%
D17*
%TO.C,R10*%
X96670500Y-57658000D03*
X94845500Y-57658000D03*
%TD*%
D20*
%TO.C,J6*%
X106173000Y-55118000D03*
X113173000Y-55118000D03*
D21*
X108573000Y-58368000D03*
X111573000Y-58368000D03*
X103473000Y-51868000D03*
X104573000Y-58368000D03*
%TD*%
D22*
%TO.C,R3*%
X76708000Y-49359500D03*
X76708000Y-51184500D03*
%TD*%
D12*
%TO.C,C8*%
X71120000Y-59465000D03*
X71120000Y-62415000D03*
%TD*%
D15*
%TO.C,C3*%
X92898000Y-62992000D03*
X90998000Y-62992000D03*
%TD*%
D22*
%TO.C,R1*%
X76708000Y-45803500D03*
X76708000Y-47628500D03*
%TD*%
D16*
%TO.C,H1*%
X111379000Y-67310000D03*
%TD*%
%TO.C,H3*%
X70993000Y-67310000D03*
%TD*%
D14*
%TO.C,JP2*%
X82804000Y-57272000D03*
X82804000Y-55972000D03*
%TD*%
D17*
%TO.C,R2*%
X86510500Y-46208000D03*
X84685500Y-46208000D03*
%TD*%
D23*
%TO.C,C4*%
X74041000Y-54422000D03*
X74041000Y-56322000D03*
%TD*%
D17*
%TO.C,R6*%
X86510500Y-43922000D03*
X84685500Y-43922000D03*
%TD*%
D24*
%TO.C,U2*%
X92837000Y-46293000D03*
X91567000Y-46293000D03*
X90297000Y-46293000D03*
X89027000Y-46293000D03*
X89027000Y-51243000D03*
X90297000Y-51243000D03*
X91567000Y-51243000D03*
X92837000Y-51243000D03*
%TD*%
D13*
%TO.C,J2*%
X103398000Y-36932000D03*
D19*
X105938000Y-36932000D03*
%TD*%
D25*
%TO.C,J8*%
X83540000Y-37498000D03*
X82890000Y-37498000D03*
X82240000Y-37498000D03*
X81590000Y-37498000D03*
X80940000Y-37498000D03*
D26*
X85740000Y-34798000D03*
D27*
X84740000Y-37498000D03*
D28*
X83240000Y-34798000D03*
D29*
X79340000Y-34798000D03*
D26*
X78740000Y-34798000D03*
D29*
X85140000Y-34798000D03*
D28*
X81240000Y-34798000D03*
D27*
X79740000Y-37498000D03*
%TD*%
D17*
%TO.C,R5*%
X80668500Y-53574000D03*
X78843500Y-53574000D03*
%TD*%
D24*
%TO.C,U3*%
X92837000Y-55437000D03*
X91567000Y-55437000D03*
X90297000Y-55437000D03*
X89027000Y-55437000D03*
X89027000Y-60387000D03*
X90297000Y-60387000D03*
X91567000Y-60387000D03*
X92837000Y-60387000D03*
%TD*%
D13*
%TO.C,J5*%
X98445000Y-37059000D03*
%TD*%
D30*
%TO.C,JP3*%
X80406000Y-55860000D03*
X79106000Y-55860000D03*
%TD*%
D17*
%TO.C,R7*%
X96670500Y-45974000D03*
X94845500Y-45974000D03*
%TD*%
D31*
%TO.C,U1*%
X78867000Y-51223000D03*
X80137000Y-51223000D03*
X81407000Y-51223000D03*
X82677000Y-51223000D03*
X82677000Y-46273000D03*
X81407000Y-46273000D03*
X80137000Y-46273000D03*
X78867000Y-46273000D03*
%TD*%
D32*
%TO.C,RV1*%
X78994000Y-59670000D03*
X76454000Y-62210000D03*
X73914000Y-59670000D03*
%TD*%
D17*
%TO.C,R8*%
X96670500Y-48514000D03*
X94845500Y-48514000D03*
%TD*%
D13*
%TO.C,J4*%
X73406000Y-43535600D03*
%TD*%
D23*
%TO.C,C5*%
X68834000Y-48306000D03*
X68834000Y-50206000D03*
%TD*%
M02*
