M48
; DRILL file {KiCad (6.0.2)} date Tue Sep  5 21:11:47 2023
; FORMAT={-:-/ absolute / inch / decimal}
; #@! TF.CreationDate,2023-09-05T21:11:47-07:00
; #@! TF.GenerationSoftware,Kicad,Pcbnew,(6.0.2)
; #@! TF.FileFunction,Plated,1,4,PTH
FMAT,2
INCH
; #@! TA.AperFunction,Plated,PTH,ViaDrill
T1C0.0118
; #@! TA.AperFunction,Plated,PTH,ViaDrill
T2C0.0157
; #@! TA.AperFunction,Plated,PTH,ComponentDrill
T3C0.0236
; #@! TA.AperFunction,Plated,PTH,ComponentDrill
T4C0.0315
; #@! TA.AperFunction,Plated,PTH,ComponentDrill
T5C0.0335
; #@! TA.AperFunction,Plated,PTH,ComponentDrill
T6C0.0394
%
G90
G05
T1
X2.71Y-2.0192
X2.74Y-1.8592
X2.79Y-2.0092
X2.8Y-2.5142
X2.83Y-1.8692
X2.835Y-2.0092
X2.915Y-2.105
X2.915Y-2.26
X2.975Y-2.0442
X3.06Y-1.7292
X3.06Y-2.1992
X3.225Y-1.7292
X3.255Y-2.0842
X3.325Y-2.1542
X3.455Y-1.73
X3.465Y-1.82
X3.505Y-2.26
X3.535Y-2.45
X3.625Y-1.75
X3.655Y-1.945
X3.6924Y-2.3774
X3.705Y-2.48
X4.0737Y-1.9563
X4.3926Y-2.2226
T2
X3.1866Y-1.5334
X3.289Y-1.535
T4
X2.91Y-2.3492
X3.01Y-2.4492
X3.11Y-2.3492
T5
X3.1394Y-1.4763
X3.3362Y-1.4763
T6
X2.74Y-1.714
X2.74Y-2.12
X2.74Y-2.22
X2.89Y-1.714
X3.38Y-2.6762
X3.8758Y-1.459
X4.0708Y-1.454
X4.1708Y-1.454
T3
G00X3.1Y-1.3838
M15
G01X3.1Y-1.3562
M16
G05
G00X3.3756Y-1.3562
M15
G01X3.3756Y-1.3838
M16
G05
T0
M30
