%TF.GenerationSoftware,KiCad,Pcbnew,(6.0.2)*%
%TF.CreationDate,2023-09-05T21:11:47-07:00*%
%TF.ProjectId,parabolic_microphone,70617261-626f-46c6-9963-5f6d6963726f,rev?*%
%TF.SameCoordinates,Original*%
%TF.FileFunction,Legend,Top*%
%TF.FilePolarity,Positive*%
%FSLAX46Y46*%
G04 Gerber Fmt 4.6, Leading zero omitted, Abs format (unit mm)*
G04 Created by KiCad (PCBNEW (6.0.2)) date 2023-09-05 21:11:47*
%MOMM*%
%LPD*%
G01*
G04 APERTURE LIST*
G04 Aperture macros list*
%AMRoundRect*
0 Rectangle with rounded corners*
0 $1 Rounding radius*
0 $2 $3 $4 $5 $6 $7 $8 $9 X,Y pos of 4 corners*
0 Add a 4 corners polygon primitive as box body*
4,1,4,$2,$3,$4,$5,$6,$7,$8,$9,$2,$3,0*
0 Add four circle primitives for the rounded corners*
1,1,$1+$1,$2,$3*
1,1,$1+$1,$4,$5*
1,1,$1+$1,$6,$7*
1,1,$1+$1,$8,$9*
0 Add four rect primitives between the rounded corners*
20,1,$1+$1,$2,$3,$4,$5,0*
20,1,$1+$1,$4,$5,$6,$7,0*
20,1,$1+$1,$6,$7,$8,$9,0*
20,1,$1+$1,$8,$9,$2,$3,0*%
G04 Aperture macros list end*
%ADD10C,0.150000*%
%ADD11C,0.100000*%
%ADD12C,0.200000*%
%ADD13C,0.120000*%
%ADD14C,0.160000*%
%ADD15R,0.600000X0.540000*%
%ADD16RoundRect,0.250000X-0.250000X-0.475000X0.250000X-0.475000X0.250000X0.475000X-0.250000X0.475000X0*%
%ADD17RoundRect,0.250000X-0.650000X0.325000X-0.650000X-0.325000X0.650000X-0.325000X0.650000X0.325000X0*%
%ADD18R,1.700000X1.700000*%
%ADD19R,1.500000X1.000000*%
%ADD20RoundRect,0.250000X0.250000X0.475000X-0.250000X0.475000X-0.250000X-0.475000X0.250000X-0.475000X0*%
%ADD21C,2.200000*%
%ADD22RoundRect,0.250000X0.262500X0.450000X-0.262500X0.450000X-0.262500X-0.450000X0.262500X-0.450000X0*%
%ADD23RoundRect,0.250000X0.325000X0.650000X-0.325000X0.650000X-0.325000X-0.650000X0.325000X-0.650000X0*%
%ADD24O,1.700000X1.700000*%
%ADD25C,1.500000*%
%ADD26R,1.200000X2.500000*%
%ADD27RoundRect,0.250000X-0.450000X0.262500X-0.450000X-0.262500X0.450000X-0.262500X0.450000X0.262500X0*%
%ADD28RoundRect,0.250000X-0.475000X0.250000X-0.475000X-0.250000X0.475000X-0.250000X0.475000X0.250000X0*%
%ADD29RoundRect,0.150000X-0.150000X0.825000X-0.150000X-0.825000X0.150000X-0.825000X0.150000X0.825000X0*%
%ADD30R,0.400000X1.350000*%
%ADD31O,1.200000X1.900000*%
%ADD32C,1.450000*%
%ADD33R,1.500000X1.900000*%
%ADD34R,1.200000X1.900000*%
%ADD35R,1.000000X1.500000*%
%ADD36RoundRect,0.150000X0.150000X-0.825000X0.150000X0.825000X-0.150000X0.825000X-0.150000X-0.825000X0*%
%ADD37C,1.440000*%
G04 APERTURE END LIST*
D10*
X100350000Y-35154000D02*
X100350000Y-37440000D01*
X92095000Y-35154000D02*
X99969000Y-35154000D01*
X99969000Y-35154000D02*
X100350000Y-35154000D01*
D11*
X105435476Y-34017000D02*
X105359285Y-33978904D01*
X105245000Y-33978904D01*
X105130714Y-34017000D01*
X105054523Y-34093190D01*
X105016428Y-34169380D01*
X104978333Y-34321761D01*
X104978333Y-34436047D01*
X105016428Y-34588428D01*
X105054523Y-34664619D01*
X105130714Y-34740809D01*
X105245000Y-34778904D01*
X105321190Y-34778904D01*
X105435476Y-34740809D01*
X105473571Y-34702714D01*
X105473571Y-34436047D01*
X105321190Y-34436047D01*
X105816428Y-34778904D02*
X105816428Y-33978904D01*
X106273571Y-34778904D01*
X106273571Y-33978904D01*
X106654523Y-34778904D02*
X106654523Y-33978904D01*
X106845000Y-33978904D01*
X106959285Y-34017000D01*
X107035476Y-34093190D01*
X107073571Y-34169380D01*
X107111666Y-34321761D01*
X107111666Y-34436047D01*
X107073571Y-34588428D01*
X107035476Y-34664619D01*
X106959285Y-34740809D01*
X106845000Y-34778904D01*
X106654523Y-34778904D01*
X71501095Y-53339104D02*
X71767761Y-54139104D01*
X72034428Y-53339104D01*
X72301095Y-53834342D02*
X72910619Y-53834342D01*
X72605857Y-54139104D02*
X72605857Y-53529580D01*
D10*
X67864171Y-41320980D02*
X67864171Y-40320980D01*
X68197504Y-41035266D01*
X68530838Y-40320980D01*
X68530838Y-41320980D01*
X69007028Y-41320980D02*
X69007028Y-40320980D01*
X70054647Y-41225742D02*
X70007028Y-41273361D01*
X69864171Y-41320980D01*
X69768933Y-41320980D01*
X69626076Y-41273361D01*
X69530838Y-41178123D01*
X69483219Y-41082885D01*
X69435600Y-40892409D01*
X69435600Y-40749552D01*
X69483219Y-40559076D01*
X69530838Y-40463838D01*
X69626076Y-40368600D01*
X69768933Y-40320980D01*
X69864171Y-40320980D01*
X70007028Y-40368600D01*
X70054647Y-40416219D01*
X71782371Y-41035266D02*
X72258561Y-41035266D01*
X71687133Y-41320980D02*
X72020466Y-40320980D01*
X72353800Y-41320980D01*
X72687133Y-41320980D02*
X72687133Y-40320980D01*
X73020466Y-41035266D01*
X73353800Y-40320980D01*
X73353800Y-41320980D01*
X73829990Y-41320980D02*
X73829990Y-40320980D01*
X74210942Y-40320980D01*
X74306180Y-40368600D01*
X74353800Y-40416219D01*
X74401419Y-40511457D01*
X74401419Y-40654314D01*
X74353800Y-40749552D01*
X74306180Y-40797171D01*
X74210942Y-40844790D01*
X73829990Y-40844790D01*
X75591895Y-41320980D02*
X75591895Y-40320980D01*
X76068085Y-41320980D02*
X76068085Y-40320980D01*
X76639514Y-41320980D01*
X76639514Y-40320980D01*
X77115704Y-40940028D02*
X77877609Y-40940028D01*
X77496657Y-41320980D02*
X77496657Y-40559076D01*
D11*
X101670952Y-33953904D02*
X101937619Y-34753904D01*
X102204285Y-33953904D01*
X102585238Y-34753904D02*
X102509047Y-34715809D01*
X102470952Y-34677714D01*
X102432857Y-34601523D01*
X102432857Y-34372952D01*
X102470952Y-34296761D01*
X102509047Y-34258666D01*
X102585238Y-34220571D01*
X102699523Y-34220571D01*
X102775714Y-34258666D01*
X102813809Y-34296761D01*
X102851904Y-34372952D01*
X102851904Y-34601523D01*
X102813809Y-34677714D01*
X102775714Y-34715809D01*
X102699523Y-34753904D01*
X102585238Y-34753904D01*
X103537619Y-34220571D02*
X103537619Y-34753904D01*
X103194761Y-34220571D02*
X103194761Y-34639619D01*
X103232857Y-34715809D01*
X103309047Y-34753904D01*
X103423333Y-34753904D01*
X103499523Y-34715809D01*
X103537619Y-34677714D01*
X103804285Y-34220571D02*
X104109047Y-34220571D01*
X103918571Y-33953904D02*
X103918571Y-34639619D01*
X103956666Y-34715809D01*
X104032857Y-34753904D01*
X104109047Y-34753904D01*
X71501095Y-55949904D02*
X71767761Y-56749904D01*
X72034428Y-55949904D01*
X72301095Y-56445142D02*
X72910619Y-56445142D01*
X91905000Y-34080904D02*
X92171666Y-34880904D01*
X92438333Y-34080904D01*
X92857380Y-34080904D02*
X93009761Y-34080904D01*
X93085952Y-34119000D01*
X93162142Y-34195190D01*
X93200238Y-34347571D01*
X93200238Y-34614238D01*
X93162142Y-34766619D01*
X93085952Y-34842809D01*
X93009761Y-34880904D01*
X92857380Y-34880904D01*
X92781190Y-34842809D01*
X92705000Y-34766619D01*
X92666904Y-34614238D01*
X92666904Y-34347571D01*
X92705000Y-34195190D01*
X92781190Y-34119000D01*
X92857380Y-34080904D01*
X93543095Y-34080904D02*
X93543095Y-34728523D01*
X93581190Y-34804714D01*
X93619285Y-34842809D01*
X93695476Y-34880904D01*
X93847857Y-34880904D01*
X93924047Y-34842809D01*
X93962142Y-34804714D01*
X94000238Y-34728523D01*
X94000238Y-34080904D01*
X94266904Y-34080904D02*
X94724047Y-34080904D01*
X94495476Y-34880904D02*
X94495476Y-34080904D01*
X95600238Y-34880904D02*
X95600238Y-34080904D01*
X96057380Y-34880904D01*
X96057380Y-34080904D01*
X96590714Y-34080904D02*
X96743095Y-34080904D01*
X96819285Y-34119000D01*
X96895476Y-34195190D01*
X96933571Y-34347571D01*
X96933571Y-34614238D01*
X96895476Y-34766619D01*
X96819285Y-34842809D01*
X96743095Y-34880904D01*
X96590714Y-34880904D01*
X96514523Y-34842809D01*
X96438333Y-34766619D01*
X96400238Y-34614238D01*
X96400238Y-34347571D01*
X96438333Y-34195190D01*
X96514523Y-34119000D01*
X96590714Y-34080904D01*
X98343095Y-34804714D02*
X98305000Y-34842809D01*
X98190714Y-34880904D01*
X98114523Y-34880904D01*
X98000238Y-34842809D01*
X97924047Y-34766619D01*
X97885952Y-34690428D01*
X97847857Y-34538047D01*
X97847857Y-34423761D01*
X97885952Y-34271380D01*
X97924047Y-34195190D01*
X98000238Y-34119000D01*
X98114523Y-34080904D01*
X98190714Y-34080904D01*
X98305000Y-34119000D01*
X98343095Y-34157095D01*
X98647857Y-34652333D02*
X99028809Y-34652333D01*
X98571666Y-34880904D02*
X98838333Y-34080904D01*
X99105000Y-34880904D01*
X99371666Y-34880904D02*
X99371666Y-34080904D01*
X99676428Y-34080904D01*
X99752619Y-34119000D01*
X99790714Y-34157095D01*
X99828809Y-34233285D01*
X99828809Y-34347571D01*
X99790714Y-34423761D01*
X99752619Y-34461857D01*
X99676428Y-34499952D01*
X99371666Y-34499952D01*
X87852380Y-68196333D02*
X88233333Y-68196333D01*
X87776190Y-68424904D02*
X88042857Y-67624904D01*
X88309523Y-68424904D01*
X88576190Y-68424904D02*
X88576190Y-67624904D01*
X88842857Y-68196333D01*
X89109523Y-67624904D01*
X89109523Y-68424904D01*
X89490476Y-68424904D02*
X89490476Y-67624904D01*
X89795238Y-67624904D01*
X89871428Y-67663000D01*
X89909523Y-67701095D01*
X89947619Y-67777285D01*
X89947619Y-67891571D01*
X89909523Y-67967761D01*
X89871428Y-68005857D01*
X89795238Y-68043952D01*
X89490476Y-68043952D01*
X87985714Y-69712904D02*
X87985714Y-68912904D01*
X88366666Y-69712904D02*
X88366666Y-68912904D01*
X88823809Y-69712904D01*
X88823809Y-68912904D01*
X89204761Y-69408142D02*
X89814285Y-69408142D01*
D12*
X93564000Y-67035071D02*
X93564000Y-65535071D01*
X94064000Y-66606500D01*
X94564000Y-65535071D01*
X94564000Y-67035071D01*
X95278285Y-66249357D02*
X95778285Y-66249357D01*
X95992571Y-67035071D02*
X95278285Y-67035071D01*
X95278285Y-65535071D01*
X95992571Y-65535071D01*
X96635428Y-67035071D02*
X96635428Y-65535071D01*
X97135428Y-66606500D01*
X97635428Y-65535071D01*
X97635428Y-67035071D01*
X98278285Y-66963642D02*
X98492571Y-67035071D01*
X98849714Y-67035071D01*
X98992571Y-66963642D01*
X99064000Y-66892214D01*
X99135428Y-66749357D01*
X99135428Y-66606500D01*
X99064000Y-66463642D01*
X98992571Y-66392214D01*
X98849714Y-66320785D01*
X98564000Y-66249357D01*
X98421142Y-66177928D01*
X98349714Y-66106500D01*
X98278285Y-65963642D01*
X98278285Y-65820785D01*
X98349714Y-65677928D01*
X98421142Y-65606500D01*
X98564000Y-65535071D01*
X98921142Y-65535071D01*
X99135428Y-65606500D01*
X100921142Y-67035071D02*
X100921142Y-65535071D01*
X101421142Y-66606500D01*
X101921142Y-65535071D01*
X101921142Y-67035071D01*
X102635428Y-67035071D02*
X102635428Y-66035071D01*
X102635428Y-65535071D02*
X102564000Y-65606500D01*
X102635428Y-65677928D01*
X102706857Y-65606500D01*
X102635428Y-65535071D01*
X102635428Y-65677928D01*
X103992571Y-66963642D02*
X103849714Y-67035071D01*
X103564000Y-67035071D01*
X103421142Y-66963642D01*
X103349714Y-66892214D01*
X103278285Y-66749357D01*
X103278285Y-66320785D01*
X103349714Y-66177928D01*
X103421142Y-66106500D01*
X103564000Y-66035071D01*
X103849714Y-66035071D01*
X103992571Y-66106500D01*
X93385428Y-67950071D02*
X94242571Y-67950071D01*
X93814000Y-69450071D02*
X93814000Y-67950071D01*
X95314000Y-69378642D02*
X95171142Y-69450071D01*
X94885428Y-69450071D01*
X94742571Y-69378642D01*
X94671142Y-69235785D01*
X94671142Y-68664357D01*
X94742571Y-68521500D01*
X94885428Y-68450071D01*
X95171142Y-68450071D01*
X95314000Y-68521500D01*
X95385428Y-68664357D01*
X95385428Y-68807214D01*
X94671142Y-68950071D01*
X95956857Y-69378642D02*
X96099714Y-69450071D01*
X96385428Y-69450071D01*
X96528285Y-69378642D01*
X96599714Y-69235785D01*
X96599714Y-69164357D01*
X96528285Y-69021500D01*
X96385428Y-68950071D01*
X96171142Y-68950071D01*
X96028285Y-68878642D01*
X95956857Y-68735785D01*
X95956857Y-68664357D01*
X96028285Y-68521500D01*
X96171142Y-68450071D01*
X96385428Y-68450071D01*
X96528285Y-68521500D01*
X97028285Y-68450071D02*
X97599714Y-68450071D01*
X97242571Y-67950071D02*
X97242571Y-69235785D01*
X97314000Y-69378642D01*
X97456857Y-69450071D01*
X97599714Y-69450071D01*
X99742571Y-68664357D02*
X99956857Y-68735785D01*
X100028285Y-68807214D01*
X100099714Y-68950071D01*
X100099714Y-69164357D01*
X100028285Y-69307214D01*
X99956857Y-69378642D01*
X99814000Y-69450071D01*
X99242571Y-69450071D01*
X99242571Y-67950071D01*
X99742571Y-67950071D01*
X99885428Y-68021500D01*
X99956857Y-68092928D01*
X100028285Y-68235785D01*
X100028285Y-68378642D01*
X99956857Y-68521500D01*
X99885428Y-68592928D01*
X99742571Y-68664357D01*
X99242571Y-68664357D01*
X100956857Y-69450071D02*
X100814000Y-69378642D01*
X100742571Y-69307214D01*
X100671142Y-69164357D01*
X100671142Y-68735785D01*
X100742571Y-68592928D01*
X100814000Y-68521500D01*
X100956857Y-68450071D01*
X101171142Y-68450071D01*
X101314000Y-68521500D01*
X101385428Y-68592928D01*
X101456857Y-68735785D01*
X101456857Y-69164357D01*
X101385428Y-69307214D01*
X101314000Y-69378642D01*
X101171142Y-69450071D01*
X100956857Y-69450071D01*
X102742571Y-69450071D02*
X102742571Y-68664357D01*
X102671142Y-68521500D01*
X102528285Y-68450071D01*
X102242571Y-68450071D01*
X102099714Y-68521500D01*
X102742571Y-69378642D02*
X102599714Y-69450071D01*
X102242571Y-69450071D01*
X102099714Y-69378642D01*
X102028285Y-69235785D01*
X102028285Y-69092928D01*
X102099714Y-68950071D01*
X102242571Y-68878642D01*
X102599714Y-68878642D01*
X102742571Y-68807214D01*
X103456857Y-69450071D02*
X103456857Y-68450071D01*
X103456857Y-68735785D02*
X103528285Y-68592928D01*
X103599714Y-68521500D01*
X103742571Y-68450071D01*
X103885428Y-68450071D01*
X105028285Y-69450071D02*
X105028285Y-67950071D01*
X105028285Y-69378642D02*
X104885428Y-69450071D01*
X104599714Y-69450071D01*
X104456857Y-69378642D01*
X104385428Y-69307214D01*
X104314000Y-69164357D01*
X104314000Y-68735785D01*
X104385428Y-68592928D01*
X104456857Y-68521500D01*
X104599714Y-68450071D01*
X104885428Y-68450071D01*
X105028285Y-68521500D01*
D11*
%TO.C,U4*%
X70256476Y-46785904D02*
X70256476Y-47433523D01*
X70294571Y-47509714D01*
X70332666Y-47547809D01*
X70408857Y-47585904D01*
X70561238Y-47585904D01*
X70637428Y-47547809D01*
X70675523Y-47509714D01*
X70713619Y-47433523D01*
X70713619Y-46785904D01*
X71437428Y-47052571D02*
X71437428Y-47585904D01*
X71246952Y-46747809D02*
X71056476Y-47319238D01*
X71551714Y-47319238D01*
%TO.C,C1*%
X78606666Y-42527714D02*
X78568571Y-42565809D01*
X78454285Y-42603904D01*
X78378095Y-42603904D01*
X78263809Y-42565809D01*
X78187619Y-42489619D01*
X78149523Y-42413428D01*
X78111428Y-42261047D01*
X78111428Y-42146761D01*
X78149523Y-41994380D01*
X78187619Y-41918190D01*
X78263809Y-41842000D01*
X78378095Y-41803904D01*
X78454285Y-41803904D01*
X78568571Y-41842000D01*
X78606666Y-41880095D01*
X79368571Y-42603904D02*
X78911428Y-42603904D01*
X79140000Y-42603904D02*
X79140000Y-41803904D01*
X79063809Y-41918190D01*
X78987619Y-41994380D01*
X78911428Y-42032476D01*
%TO.C,C6*%
X74034666Y-46513714D02*
X73996571Y-46551809D01*
X73882285Y-46589904D01*
X73806095Y-46589904D01*
X73691809Y-46551809D01*
X73615619Y-46475619D01*
X73577523Y-46399428D01*
X73539428Y-46247047D01*
X73539428Y-46132761D01*
X73577523Y-45980380D01*
X73615619Y-45904190D01*
X73691809Y-45828000D01*
X73806095Y-45789904D01*
X73882285Y-45789904D01*
X73996571Y-45828000D01*
X74034666Y-45866095D01*
X74720380Y-45789904D02*
X74568000Y-45789904D01*
X74491809Y-45828000D01*
X74453714Y-45866095D01*
X74377523Y-45980380D01*
X74339428Y-46132761D01*
X74339428Y-46437523D01*
X74377523Y-46513714D01*
X74415619Y-46551809D01*
X74491809Y-46589904D01*
X74644190Y-46589904D01*
X74720380Y-46551809D01*
X74758476Y-46513714D01*
X74796571Y-46437523D01*
X74796571Y-46247047D01*
X74758476Y-46170857D01*
X74720380Y-46132761D01*
X74644190Y-46094666D01*
X74491809Y-46094666D01*
X74415619Y-46132761D01*
X74377523Y-46170857D01*
X74339428Y-46247047D01*
%TO.C,J3*%
X68237133Y-45535904D02*
X68237133Y-46107333D01*
X68199038Y-46221619D01*
X68122847Y-46297809D01*
X68008561Y-46335904D01*
X67932371Y-46335904D01*
X68541895Y-45535904D02*
X69037133Y-45535904D01*
X68770466Y-45840666D01*
X68884752Y-45840666D01*
X68960942Y-45878761D01*
X68999038Y-45916857D01*
X69037133Y-45993047D01*
X69037133Y-46183523D01*
X68999038Y-46259714D01*
X68960942Y-46297809D01*
X68884752Y-46335904D01*
X68656180Y-46335904D01*
X68579990Y-46297809D01*
X68541895Y-46259714D01*
%TO.C,JP1*%
X99282333Y-58870904D02*
X99282333Y-59442333D01*
X99244238Y-59556619D01*
X99168047Y-59632809D01*
X99053761Y-59670904D01*
X98977571Y-59670904D01*
X99663285Y-59670904D02*
X99663285Y-58870904D01*
X99968047Y-58870904D01*
X100044238Y-58909000D01*
X100082333Y-58947095D01*
X100120428Y-59023285D01*
X100120428Y-59137571D01*
X100082333Y-59213761D01*
X100044238Y-59251857D01*
X99968047Y-59289952D01*
X99663285Y-59289952D01*
X100882333Y-59670904D02*
X100425190Y-59670904D01*
X100653761Y-59670904D02*
X100653761Y-58870904D01*
X100577571Y-58985190D01*
X100501380Y-59061380D01*
X100425190Y-59099476D01*
%TO.C,C2*%
X88766666Y-42703714D02*
X88728571Y-42741809D01*
X88614285Y-42779904D01*
X88538095Y-42779904D01*
X88423809Y-42741809D01*
X88347619Y-42665619D01*
X88309523Y-42589428D01*
X88271428Y-42437047D01*
X88271428Y-42322761D01*
X88309523Y-42170380D01*
X88347619Y-42094190D01*
X88423809Y-42018000D01*
X88538095Y-41979904D01*
X88614285Y-41979904D01*
X88728571Y-42018000D01*
X88766666Y-42056095D01*
X89071428Y-42056095D02*
X89109523Y-42018000D01*
X89185714Y-41979904D01*
X89376190Y-41979904D01*
X89452380Y-42018000D01*
X89490476Y-42056095D01*
X89528571Y-42132285D01*
X89528571Y-42208476D01*
X89490476Y-42322761D01*
X89033333Y-42779904D01*
X89528571Y-42779904D01*
%TO.C,J7*%
X82791333Y-67303704D02*
X82791333Y-67875133D01*
X82753238Y-67989419D01*
X82677047Y-68065609D01*
X82562761Y-68103704D01*
X82486571Y-68103704D01*
X83096095Y-67303704D02*
X83629428Y-67303704D01*
X83286571Y-68103704D01*
%TO.C,R4*%
X84448666Y-60539904D02*
X84182000Y-60158952D01*
X83991523Y-60539904D02*
X83991523Y-59739904D01*
X84296285Y-59739904D01*
X84372476Y-59778000D01*
X84410571Y-59816095D01*
X84448666Y-59892285D01*
X84448666Y-60006571D01*
X84410571Y-60082761D01*
X84372476Y-60120857D01*
X84296285Y-60158952D01*
X83991523Y-60158952D01*
X85134380Y-60006571D02*
X85134380Y-60539904D01*
X84943904Y-59701809D02*
X84753428Y-60273238D01*
X85248666Y-60273238D01*
%TO.C,C7*%
X98672666Y-54205714D02*
X98634571Y-54243809D01*
X98520285Y-54281904D01*
X98444095Y-54281904D01*
X98329809Y-54243809D01*
X98253619Y-54167619D01*
X98215523Y-54091428D01*
X98177428Y-53939047D01*
X98177428Y-53824761D01*
X98215523Y-53672380D01*
X98253619Y-53596190D01*
X98329809Y-53520000D01*
X98444095Y-53481904D01*
X98520285Y-53481904D01*
X98634571Y-53520000D01*
X98672666Y-53558095D01*
X98939333Y-53481904D02*
X99472666Y-53481904D01*
X99129809Y-54281904D01*
%TO.C,R9*%
X94608666Y-54209904D02*
X94342000Y-53828952D01*
X94151523Y-54209904D02*
X94151523Y-53409904D01*
X94456285Y-53409904D01*
X94532476Y-53448000D01*
X94570571Y-53486095D01*
X94608666Y-53562285D01*
X94608666Y-53676571D01*
X94570571Y-53752761D01*
X94532476Y-53790857D01*
X94456285Y-53828952D01*
X94151523Y-53828952D01*
X94989619Y-54209904D02*
X95142000Y-54209904D01*
X95218190Y-54171809D01*
X95256285Y-54133714D01*
X95332476Y-54019428D01*
X95370571Y-53867047D01*
X95370571Y-53562285D01*
X95332476Y-53486095D01*
X95294380Y-53448000D01*
X95218190Y-53409904D01*
X95065809Y-53409904D01*
X94989619Y-53448000D01*
X94951523Y-53486095D01*
X94913428Y-53562285D01*
X94913428Y-53752761D01*
X94951523Y-53828952D01*
X94989619Y-53867047D01*
X95065809Y-53905142D01*
X95218190Y-53905142D01*
X95294380Y-53867047D01*
X95332476Y-53828952D01*
X95370571Y-53752761D01*
%TO.C,J1*%
X68313333Y-58362904D02*
X68313333Y-58934333D01*
X68275238Y-59048619D01*
X68199047Y-59124809D01*
X68084761Y-59162904D01*
X68008571Y-59162904D01*
X69113333Y-59162904D02*
X68656190Y-59162904D01*
X68884761Y-59162904D02*
X68884761Y-58362904D01*
X68808571Y-58477190D01*
X68732380Y-58553380D01*
X68656190Y-58591476D01*
%TO.C,R10*%
X95243714Y-59669904D02*
X94977047Y-59288952D01*
X94786571Y-59669904D02*
X94786571Y-58869904D01*
X95091333Y-58869904D01*
X95167523Y-58908000D01*
X95205619Y-58946095D01*
X95243714Y-59022285D01*
X95243714Y-59136571D01*
X95205619Y-59212761D01*
X95167523Y-59250857D01*
X95091333Y-59288952D01*
X94786571Y-59288952D01*
X96005619Y-59669904D02*
X95548476Y-59669904D01*
X95777047Y-59669904D02*
X95777047Y-58869904D01*
X95700857Y-58984190D01*
X95624666Y-59060380D01*
X95548476Y-59098476D01*
X96500857Y-58869904D02*
X96577047Y-58869904D01*
X96653238Y-58908000D01*
X96691333Y-58946095D01*
X96729428Y-59022285D01*
X96767523Y-59174666D01*
X96767523Y-59365142D01*
X96729428Y-59517523D01*
X96691333Y-59593714D01*
X96653238Y-59631809D01*
X96577047Y-59669904D01*
X96500857Y-59669904D01*
X96424666Y-59631809D01*
X96386571Y-59593714D01*
X96348476Y-59517523D01*
X96310380Y-59365142D01*
X96310380Y-59174666D01*
X96348476Y-59022285D01*
X96386571Y-58946095D01*
X96424666Y-58908000D01*
X96500857Y-58869904D01*
%TO.C,J6*%
X109207333Y-61029904D02*
X109207333Y-61601333D01*
X109169238Y-61715619D01*
X109093047Y-61791809D01*
X108978761Y-61829904D01*
X108902571Y-61829904D01*
X109931142Y-61029904D02*
X109778761Y-61029904D01*
X109702571Y-61068000D01*
X109664476Y-61106095D01*
X109588285Y-61220380D01*
X109550190Y-61372761D01*
X109550190Y-61677523D01*
X109588285Y-61753714D01*
X109626380Y-61791809D01*
X109702571Y-61829904D01*
X109854952Y-61829904D01*
X109931142Y-61791809D01*
X109969238Y-61753714D01*
X110007333Y-61677523D01*
X110007333Y-61487047D01*
X109969238Y-61410857D01*
X109931142Y-61372761D01*
X109854952Y-61334666D01*
X109702571Y-61334666D01*
X109626380Y-61372761D01*
X109588285Y-61410857D01*
X109550190Y-61487047D01*
%TO.C,R3*%
X76574666Y-52919904D02*
X76308000Y-52538952D01*
X76117523Y-52919904D02*
X76117523Y-52119904D01*
X76422285Y-52119904D01*
X76498476Y-52158000D01*
X76536571Y-52196095D01*
X76574666Y-52272285D01*
X76574666Y-52386571D01*
X76536571Y-52462761D01*
X76498476Y-52500857D01*
X76422285Y-52538952D01*
X76117523Y-52538952D01*
X76841333Y-52119904D02*
X77336571Y-52119904D01*
X77069904Y-52424666D01*
X77184190Y-52424666D01*
X77260380Y-52462761D01*
X77298476Y-52500857D01*
X77336571Y-52577047D01*
X77336571Y-52767523D01*
X77298476Y-52843714D01*
X77260380Y-52881809D01*
X77184190Y-52919904D01*
X76955619Y-52919904D01*
X76879428Y-52881809D01*
X76841333Y-52843714D01*
%TO.C,C8*%
X68700666Y-62749714D02*
X68662571Y-62787809D01*
X68548285Y-62825904D01*
X68472095Y-62825904D01*
X68357809Y-62787809D01*
X68281619Y-62711619D01*
X68243523Y-62635428D01*
X68205428Y-62483047D01*
X68205428Y-62368761D01*
X68243523Y-62216380D01*
X68281619Y-62140190D01*
X68357809Y-62064000D01*
X68472095Y-62025904D01*
X68548285Y-62025904D01*
X68662571Y-62064000D01*
X68700666Y-62102095D01*
X69157809Y-62368761D02*
X69081619Y-62330666D01*
X69043523Y-62292571D01*
X69005428Y-62216380D01*
X69005428Y-62178285D01*
X69043523Y-62102095D01*
X69081619Y-62064000D01*
X69157809Y-62025904D01*
X69310190Y-62025904D01*
X69386380Y-62064000D01*
X69424476Y-62102095D01*
X69462571Y-62178285D01*
X69462571Y-62216380D01*
X69424476Y-62292571D01*
X69386380Y-62330666D01*
X69310190Y-62368761D01*
X69157809Y-62368761D01*
X69081619Y-62406857D01*
X69043523Y-62444952D01*
X69005428Y-62521142D01*
X69005428Y-62673523D01*
X69043523Y-62749714D01*
X69081619Y-62787809D01*
X69157809Y-62825904D01*
X69310190Y-62825904D01*
X69386380Y-62787809D01*
X69424476Y-62749714D01*
X69462571Y-62673523D01*
X69462571Y-62521142D01*
X69424476Y-62444952D01*
X69386380Y-62406857D01*
X69310190Y-62368761D01*
%TO.C,C3*%
X91814666Y-64957714D02*
X91776571Y-64995809D01*
X91662285Y-65033904D01*
X91586095Y-65033904D01*
X91471809Y-64995809D01*
X91395619Y-64919619D01*
X91357523Y-64843428D01*
X91319428Y-64691047D01*
X91319428Y-64576761D01*
X91357523Y-64424380D01*
X91395619Y-64348190D01*
X91471809Y-64272000D01*
X91586095Y-64233904D01*
X91662285Y-64233904D01*
X91776571Y-64272000D01*
X91814666Y-64310095D01*
X92081333Y-64233904D02*
X92576571Y-64233904D01*
X92309904Y-64538666D01*
X92424190Y-64538666D01*
X92500380Y-64576761D01*
X92538476Y-64614857D01*
X92576571Y-64691047D01*
X92576571Y-64881523D01*
X92538476Y-64957714D01*
X92500380Y-64995809D01*
X92424190Y-65033904D01*
X92195619Y-65033904D01*
X92119428Y-64995809D01*
X92081333Y-64957714D01*
%TO.C,R1*%
X76574666Y-44791904D02*
X76308000Y-44410952D01*
X76117523Y-44791904D02*
X76117523Y-43991904D01*
X76422285Y-43991904D01*
X76498476Y-44030000D01*
X76536571Y-44068095D01*
X76574666Y-44144285D01*
X76574666Y-44258571D01*
X76536571Y-44334761D01*
X76498476Y-44372857D01*
X76422285Y-44410952D01*
X76117523Y-44410952D01*
X77336571Y-44791904D02*
X76879428Y-44791904D01*
X77108000Y-44791904D02*
X77108000Y-43991904D01*
X77031809Y-44106190D01*
X76955619Y-44182380D01*
X76879428Y-44220476D01*
%TO.C,JP2*%
X82137333Y-53755904D02*
X82137333Y-54327333D01*
X82099238Y-54441619D01*
X82023047Y-54517809D01*
X81908761Y-54555904D01*
X81832571Y-54555904D01*
X82518285Y-54555904D02*
X82518285Y-53755904D01*
X82823047Y-53755904D01*
X82899238Y-53794000D01*
X82937333Y-53832095D01*
X82975428Y-53908285D01*
X82975428Y-54022571D01*
X82937333Y-54098761D01*
X82899238Y-54136857D01*
X82823047Y-54174952D01*
X82518285Y-54174952D01*
X83280190Y-53832095D02*
X83318285Y-53794000D01*
X83394476Y-53755904D01*
X83584952Y-53755904D01*
X83661142Y-53794000D01*
X83699238Y-53832095D01*
X83737333Y-53908285D01*
X83737333Y-53984476D01*
X83699238Y-54098761D01*
X83242095Y-54555904D01*
X83737333Y-54555904D01*
%TO.C,R2*%
X84448666Y-48347904D02*
X84182000Y-47966952D01*
X83991523Y-48347904D02*
X83991523Y-47547904D01*
X84296285Y-47547904D01*
X84372476Y-47586000D01*
X84410571Y-47624095D01*
X84448666Y-47700285D01*
X84448666Y-47814571D01*
X84410571Y-47890761D01*
X84372476Y-47928857D01*
X84296285Y-47966952D01*
X83991523Y-47966952D01*
X84753428Y-47624095D02*
X84791523Y-47586000D01*
X84867714Y-47547904D01*
X85058190Y-47547904D01*
X85134380Y-47586000D01*
X85172476Y-47624095D01*
X85210571Y-47700285D01*
X85210571Y-47776476D01*
X85172476Y-47890761D01*
X84715333Y-48347904D01*
X85210571Y-48347904D01*
%TO.C,C4*%
X75685666Y-56800714D02*
X75647571Y-56838809D01*
X75533285Y-56876904D01*
X75457095Y-56876904D01*
X75342809Y-56838809D01*
X75266619Y-56762619D01*
X75228523Y-56686428D01*
X75190428Y-56534047D01*
X75190428Y-56419761D01*
X75228523Y-56267380D01*
X75266619Y-56191190D01*
X75342809Y-56115000D01*
X75457095Y-56076904D01*
X75533285Y-56076904D01*
X75647571Y-56115000D01*
X75685666Y-56153095D01*
X76371380Y-56343571D02*
X76371380Y-56876904D01*
X76180904Y-56038809D02*
X75990428Y-56610238D01*
X76485666Y-56610238D01*
%TO.C,R6*%
X84448666Y-42759904D02*
X84182000Y-42378952D01*
X83991523Y-42759904D02*
X83991523Y-41959904D01*
X84296285Y-41959904D01*
X84372476Y-41998000D01*
X84410571Y-42036095D01*
X84448666Y-42112285D01*
X84448666Y-42226571D01*
X84410571Y-42302761D01*
X84372476Y-42340857D01*
X84296285Y-42378952D01*
X83991523Y-42378952D01*
X85134380Y-41959904D02*
X84982000Y-41959904D01*
X84905809Y-41998000D01*
X84867714Y-42036095D01*
X84791523Y-42150380D01*
X84753428Y-42302761D01*
X84753428Y-42607523D01*
X84791523Y-42683714D01*
X84829619Y-42721809D01*
X84905809Y-42759904D01*
X85058190Y-42759904D01*
X85134380Y-42721809D01*
X85172476Y-42683714D01*
X85210571Y-42607523D01*
X85210571Y-42417047D01*
X85172476Y-42340857D01*
X85134380Y-42302761D01*
X85058190Y-42264666D01*
X84905809Y-42264666D01*
X84829619Y-42302761D01*
X84791523Y-42340857D01*
X84753428Y-42417047D01*
%TO.C,U2*%
X92481476Y-44011904D02*
X92481476Y-44659523D01*
X92519571Y-44735714D01*
X92557666Y-44773809D01*
X92633857Y-44811904D01*
X92786238Y-44811904D01*
X92862428Y-44773809D01*
X92900523Y-44735714D01*
X92938619Y-44659523D01*
X92938619Y-44011904D01*
X93281476Y-44088095D02*
X93319571Y-44050000D01*
X93395761Y-44011904D01*
X93586238Y-44011904D01*
X93662428Y-44050000D01*
X93700523Y-44088095D01*
X93738619Y-44164285D01*
X93738619Y-44240476D01*
X93700523Y-44354761D01*
X93243380Y-44811904D01*
X93738619Y-44811904D01*
%TO.C,J2*%
X106941333Y-39033904D02*
X106941333Y-39605333D01*
X106903238Y-39719619D01*
X106827047Y-39795809D01*
X106712761Y-39833904D01*
X106636571Y-39833904D01*
X107284190Y-39110095D02*
X107322285Y-39072000D01*
X107398476Y-39033904D01*
X107588952Y-39033904D01*
X107665142Y-39072000D01*
X107703238Y-39110095D01*
X107741333Y-39186285D01*
X107741333Y-39262476D01*
X107703238Y-39376761D01*
X107246095Y-39833904D01*
X107741333Y-39833904D01*
D10*
%TO.C,J8*%
X87215266Y-34288280D02*
X87215266Y-35002566D01*
X87167647Y-35145423D01*
X87072409Y-35240661D01*
X86929552Y-35288280D01*
X86834314Y-35288280D01*
X87834314Y-34716852D02*
X87739076Y-34669233D01*
X87691457Y-34621614D01*
X87643838Y-34526376D01*
X87643838Y-34478757D01*
X87691457Y-34383519D01*
X87739076Y-34335900D01*
X87834314Y-34288280D01*
X88024790Y-34288280D01*
X88120028Y-34335900D01*
X88167647Y-34383519D01*
X88215266Y-34478757D01*
X88215266Y-34526376D01*
X88167647Y-34621614D01*
X88120028Y-34669233D01*
X88024790Y-34716852D01*
X87834314Y-34716852D01*
X87739076Y-34764471D01*
X87691457Y-34812090D01*
X87643838Y-34907328D01*
X87643838Y-35097804D01*
X87691457Y-35193042D01*
X87739076Y-35240661D01*
X87834314Y-35288280D01*
X88024790Y-35288280D01*
X88120028Y-35240661D01*
X88167647Y-35193042D01*
X88215266Y-35097804D01*
X88215266Y-34907328D01*
X88167647Y-34812090D01*
X88120028Y-34764471D01*
X88024790Y-34716852D01*
D11*
%TO.C,R5*%
X77082666Y-54443904D02*
X76816000Y-54062952D01*
X76625523Y-54443904D02*
X76625523Y-53643904D01*
X76930285Y-53643904D01*
X77006476Y-53682000D01*
X77044571Y-53720095D01*
X77082666Y-53796285D01*
X77082666Y-53910571D01*
X77044571Y-53986761D01*
X77006476Y-54024857D01*
X76930285Y-54062952D01*
X76625523Y-54062952D01*
X77806476Y-53643904D02*
X77425523Y-53643904D01*
X77387428Y-54024857D01*
X77425523Y-53986761D01*
X77501714Y-53948666D01*
X77692190Y-53948666D01*
X77768380Y-53986761D01*
X77806476Y-54024857D01*
X77844571Y-54101047D01*
X77844571Y-54291523D01*
X77806476Y-54367714D01*
X77768380Y-54405809D01*
X77692190Y-54443904D01*
X77501714Y-54443904D01*
X77425523Y-54405809D01*
X77387428Y-54367714D01*
%TO.C,U3*%
X86766476Y-60775904D02*
X86766476Y-61423523D01*
X86804571Y-61499714D01*
X86842666Y-61537809D01*
X86918857Y-61575904D01*
X87071238Y-61575904D01*
X87147428Y-61537809D01*
X87185523Y-61499714D01*
X87223619Y-61423523D01*
X87223619Y-60775904D01*
X87528380Y-60775904D02*
X88023619Y-60775904D01*
X87756952Y-61080666D01*
X87871238Y-61080666D01*
X87947428Y-61118761D01*
X87985523Y-61156857D01*
X88023619Y-61233047D01*
X88023619Y-61423523D01*
X87985523Y-61499714D01*
X87947428Y-61537809D01*
X87871238Y-61575904D01*
X87642666Y-61575904D01*
X87566476Y-61537809D01*
X87528380Y-61499714D01*
%TO.C,J5*%
X95384333Y-35604904D02*
X95384333Y-36176333D01*
X95346238Y-36290619D01*
X95270047Y-36366809D01*
X95155761Y-36404904D01*
X95079571Y-36404904D01*
X96146238Y-35604904D02*
X95765285Y-35604904D01*
X95727190Y-35985857D01*
X95765285Y-35947761D01*
X95841476Y-35909666D01*
X96031952Y-35909666D01*
X96108142Y-35947761D01*
X96146238Y-35985857D01*
X96184333Y-36062047D01*
X96184333Y-36252523D01*
X96146238Y-36328714D01*
X96108142Y-36366809D01*
X96031952Y-36404904D01*
X95841476Y-36404904D01*
X95765285Y-36366809D01*
X95727190Y-36328714D01*
%TO.C,JP3*%
X78200333Y-57346904D02*
X78200333Y-57918333D01*
X78162238Y-58032619D01*
X78086047Y-58108809D01*
X77971761Y-58146904D01*
X77895571Y-58146904D01*
X78581285Y-58146904D02*
X78581285Y-57346904D01*
X78886047Y-57346904D01*
X78962238Y-57385000D01*
X79000333Y-57423095D01*
X79038428Y-57499285D01*
X79038428Y-57613571D01*
X79000333Y-57689761D01*
X78962238Y-57727857D01*
X78886047Y-57765952D01*
X78581285Y-57765952D01*
X79305095Y-57346904D02*
X79800333Y-57346904D01*
X79533666Y-57651666D01*
X79647952Y-57651666D01*
X79724142Y-57689761D01*
X79762238Y-57727857D01*
X79800333Y-57804047D01*
X79800333Y-57994523D01*
X79762238Y-58070714D01*
X79724142Y-58108809D01*
X79647952Y-58146904D01*
X79419380Y-58146904D01*
X79343190Y-58108809D01*
X79305095Y-58070714D01*
%TO.C,R7*%
X96767666Y-44811904D02*
X96501000Y-44430952D01*
X96310523Y-44811904D02*
X96310523Y-44011904D01*
X96615285Y-44011904D01*
X96691476Y-44050000D01*
X96729571Y-44088095D01*
X96767666Y-44164285D01*
X96767666Y-44278571D01*
X96729571Y-44354761D01*
X96691476Y-44392857D01*
X96615285Y-44430952D01*
X96310523Y-44430952D01*
X97034333Y-44011904D02*
X97567666Y-44011904D01*
X97224809Y-44811904D01*
%TO.C,U1*%
X83718476Y-51103904D02*
X83718476Y-51751523D01*
X83756571Y-51827714D01*
X83794666Y-51865809D01*
X83870857Y-51903904D01*
X84023238Y-51903904D01*
X84099428Y-51865809D01*
X84137523Y-51827714D01*
X84175619Y-51751523D01*
X84175619Y-51103904D01*
X84975619Y-51903904D02*
X84518476Y-51903904D01*
X84747047Y-51903904D02*
X84747047Y-51103904D01*
X84670857Y-51218190D01*
X84594666Y-51294380D01*
X84518476Y-51332476D01*
%TO.C,RV1*%
X81057809Y-62571904D02*
X80791142Y-62190952D01*
X80600666Y-62571904D02*
X80600666Y-61771904D01*
X80905428Y-61771904D01*
X80981619Y-61810000D01*
X81019714Y-61848095D01*
X81057809Y-61924285D01*
X81057809Y-62038571D01*
X81019714Y-62114761D01*
X80981619Y-62152857D01*
X80905428Y-62190952D01*
X80600666Y-62190952D01*
X81286380Y-61771904D02*
X81553047Y-62571904D01*
X81819714Y-61771904D01*
X82505428Y-62571904D02*
X82048285Y-62571904D01*
X82276857Y-62571904D02*
X82276857Y-61771904D01*
X82200666Y-61886190D01*
X82124476Y-61962380D01*
X82048285Y-62000476D01*
%TO.C,R8*%
X94608666Y-50525904D02*
X94342000Y-50144952D01*
X94151523Y-50525904D02*
X94151523Y-49725904D01*
X94456285Y-49725904D01*
X94532476Y-49764000D01*
X94570571Y-49802095D01*
X94608666Y-49878285D01*
X94608666Y-49992571D01*
X94570571Y-50068761D01*
X94532476Y-50106857D01*
X94456285Y-50144952D01*
X94151523Y-50144952D01*
X95065809Y-50068761D02*
X94989619Y-50030666D01*
X94951523Y-49992571D01*
X94913428Y-49916380D01*
X94913428Y-49878285D01*
X94951523Y-49802095D01*
X94989619Y-49764000D01*
X95065809Y-49725904D01*
X95218190Y-49725904D01*
X95294380Y-49764000D01*
X95332476Y-49802095D01*
X95370571Y-49878285D01*
X95370571Y-49916380D01*
X95332476Y-49992571D01*
X95294380Y-50030666D01*
X95218190Y-50068761D01*
X95065809Y-50068761D01*
X94989619Y-50106857D01*
X94951523Y-50144952D01*
X94913428Y-50221142D01*
X94913428Y-50373523D01*
X94951523Y-50449714D01*
X94989619Y-50487809D01*
X95065809Y-50525904D01*
X95218190Y-50525904D01*
X95294380Y-50487809D01*
X95332476Y-50449714D01*
X95370571Y-50373523D01*
X95370571Y-50221142D01*
X95332476Y-50144952D01*
X95294380Y-50106857D01*
X95218190Y-50068761D01*
%TO.C,J4*%
X71945533Y-45535904D02*
X71945533Y-46107333D01*
X71907438Y-46221619D01*
X71831247Y-46297809D01*
X71716961Y-46335904D01*
X71640771Y-46335904D01*
X72669342Y-45802571D02*
X72669342Y-46335904D01*
X72478866Y-45497809D02*
X72288390Y-46069238D01*
X72783628Y-46069238D01*
%TO.C,C5*%
X69716666Y-51847714D02*
X69678571Y-51885809D01*
X69564285Y-51923904D01*
X69488095Y-51923904D01*
X69373809Y-51885809D01*
X69297619Y-51809619D01*
X69259523Y-51733428D01*
X69221428Y-51581047D01*
X69221428Y-51466761D01*
X69259523Y-51314380D01*
X69297619Y-51238190D01*
X69373809Y-51162000D01*
X69488095Y-51123904D01*
X69564285Y-51123904D01*
X69678571Y-51162000D01*
X69716666Y-51200095D01*
X70440476Y-51123904D02*
X70059523Y-51123904D01*
X70021428Y-51504857D01*
X70059523Y-51466761D01*
X70135714Y-51428666D01*
X70326190Y-51428666D01*
X70402380Y-51466761D01*
X70440476Y-51504857D01*
X70478571Y-51581047D01*
X70478571Y-51771523D01*
X70440476Y-51847714D01*
X70402380Y-51885809D01*
X70326190Y-51923904D01*
X70135714Y-51923904D01*
X70059523Y-51885809D01*
X70021428Y-51847714D01*
D13*
%TO.C,U4*%
X70349000Y-47740000D02*
X72399000Y-47740000D01*
X72399000Y-47740000D02*
X72399000Y-50690000D01*
X72399000Y-50690000D02*
X70349000Y-50690000D01*
X70349000Y-50690000D02*
X70349000Y-47740000D01*
D14*
X70179000Y-47990000D02*
G75*
G03*
X70179000Y-47990000I-80000J0D01*
G01*
D13*
%TO.C,C1*%
X79494748Y-43187000D02*
X80017252Y-43187000D01*
X79494748Y-44657000D02*
X80017252Y-44657000D01*
%TO.C,C6*%
X73258000Y-48290748D02*
X73258000Y-49713252D01*
X75078000Y-48290748D02*
X75078000Y-49713252D01*
%TO.C,J3*%
X68266000Y-44745600D02*
X68266000Y-44865600D01*
X68266000Y-44865600D02*
X70926000Y-44865600D01*
X70926000Y-44745600D02*
X70926000Y-44865600D01*
X69596000Y-42205600D02*
X70926000Y-42205600D01*
X70926000Y-42205600D02*
X70926000Y-43535600D01*
%TO.C,JP1*%
X99076000Y-55496000D02*
X101076000Y-55496000D01*
X99076000Y-58296000D02*
X99076000Y-55496000D01*
X101076000Y-58296000D02*
X99076000Y-58296000D01*
X101076000Y-55496000D02*
X101076000Y-58296000D01*
%TO.C,C2*%
X90177252Y-44677000D02*
X89654748Y-44677000D01*
X90177252Y-43207000D02*
X89654748Y-43207000D01*
%TO.C,J7*%
X87182000Y-69185800D02*
X87182000Y-69305800D01*
X87182000Y-66645800D02*
X87182000Y-67975800D01*
X84522000Y-69185800D02*
X84522000Y-69305800D01*
X84522000Y-69305800D02*
X87182000Y-69305800D01*
X85852000Y-66645800D02*
X87182000Y-66645800D01*
%TO.C,R4*%
X82269064Y-58935000D02*
X81814936Y-58935000D01*
X82269064Y-60405000D02*
X81814936Y-60405000D01*
%TO.C,C7*%
X99517252Y-51160000D02*
X98094748Y-51160000D01*
X99517252Y-52980000D02*
X98094748Y-52980000D01*
%TO.C,R9*%
X95985064Y-56107000D02*
X95530936Y-56107000D01*
X95985064Y-54637000D02*
X95530936Y-54637000D01*
%TO.C,J1*%
X70926000Y-55118000D02*
X70926000Y-57718000D01*
X68266000Y-55118000D02*
X68266000Y-57718000D01*
X68266000Y-55118000D02*
X70926000Y-55118000D01*
X69596000Y-52518000D02*
X70926000Y-52518000D01*
X68266000Y-57718000D02*
X70926000Y-57718000D01*
X70926000Y-52518000D02*
X70926000Y-53848000D01*
%TO.C,R10*%
X95985064Y-58393000D02*
X95530936Y-58393000D01*
X95985064Y-56923000D02*
X95530936Y-56923000D01*
%TO.C,J6*%
X104248000Y-52018000D02*
X114773000Y-52018000D01*
X114773000Y-52618000D02*
X114773000Y-52018000D01*
X114773000Y-52618000D02*
X116773000Y-52618000D01*
X102673000Y-52018000D02*
X102673000Y-58218000D01*
X114773000Y-58218000D02*
X112398000Y-58218000D01*
X114773000Y-57618000D02*
X116773000Y-57618000D01*
X116773000Y-57618000D02*
X116773000Y-52618000D01*
X114773000Y-58218000D02*
X114773000Y-57618000D01*
X110748000Y-58218000D02*
X109398000Y-58218000D01*
X103798000Y-58218000D02*
X102673000Y-58218000D01*
X107748000Y-58218000D02*
X105348000Y-58218000D01*
X103798000Y-58218000D02*
X103798000Y-59618000D01*
X105348000Y-58218000D02*
X105348000Y-59618000D01*
%TO.C,R3*%
X75973000Y-50044936D02*
X75973000Y-50499064D01*
X77443000Y-50044936D02*
X77443000Y-50499064D01*
%TO.C,C8*%
X70210000Y-60228748D02*
X70210000Y-61651252D01*
X72030000Y-60228748D02*
X72030000Y-61651252D01*
%TO.C,C3*%
X92209252Y-63727000D02*
X91686748Y-63727000D01*
X92209252Y-62257000D02*
X91686748Y-62257000D01*
%TO.C,R1*%
X75973000Y-46488936D02*
X75973000Y-46943064D01*
X77443000Y-46488936D02*
X77443000Y-46943064D01*
%TO.C,JP2*%
X83804000Y-58022000D02*
X81804000Y-58022000D01*
X81804000Y-55222000D02*
X83804000Y-55222000D01*
X83804000Y-55222000D02*
X83804000Y-58022000D01*
X81804000Y-58022000D02*
X81804000Y-55222000D01*
%TO.C,R2*%
X85825064Y-45473000D02*
X85370936Y-45473000D01*
X85825064Y-46943000D02*
X85370936Y-46943000D01*
%TO.C,C4*%
X74776000Y-55110748D02*
X74776000Y-55633252D01*
X73306000Y-55110748D02*
X73306000Y-55633252D01*
%TO.C,R6*%
X85825064Y-44657000D02*
X85370936Y-44657000D01*
X85825064Y-43187000D02*
X85370936Y-43187000D01*
%TO.C,U2*%
X88372000Y-48768000D02*
X88372000Y-50718000D01*
X93492000Y-48768000D02*
X93492000Y-50718000D01*
X88372000Y-48768000D02*
X88372000Y-46818000D01*
X93492000Y-48768000D02*
X93492000Y-45318000D01*
%TO.C,J2*%
X102068000Y-35602000D02*
X103398000Y-35602000D01*
X104668000Y-35602000D02*
X107268000Y-35602000D01*
X107268000Y-38262000D02*
X107268000Y-35602000D01*
X102068000Y-36932000D02*
X102068000Y-35602000D01*
X104668000Y-38262000D02*
X104668000Y-35602000D01*
X104668000Y-38262000D02*
X107268000Y-38262000D01*
%TO.C,J8*%
X86140000Y-33398000D02*
X86140000Y-33648000D01*
X78340000Y-35948000D02*
X78340000Y-37798000D01*
X83940000Y-38348000D02*
X83490000Y-38348000D01*
X86140000Y-37798000D02*
X85690000Y-37798000D01*
X78340000Y-33398000D02*
X78340000Y-33648000D01*
X78340000Y-37798000D02*
X78790000Y-37798000D01*
X86140000Y-35948000D02*
X86140000Y-37798000D01*
X83940000Y-38348000D02*
X83940000Y-37898000D01*
%TO.C,R5*%
X79983064Y-52839000D02*
X79528936Y-52839000D01*
X79983064Y-54309000D02*
X79528936Y-54309000D01*
%TO.C,U3*%
X88372000Y-57912000D02*
X88372000Y-55962000D01*
X93492000Y-57912000D02*
X93492000Y-54462000D01*
X93492000Y-57912000D02*
X93492000Y-59862000D01*
X88372000Y-57912000D02*
X88372000Y-59862000D01*
%TO.C,J5*%
X97115000Y-38269000D02*
X97115000Y-38389000D01*
X99775000Y-35729000D02*
X99775000Y-37059000D01*
X98445000Y-35729000D02*
X99775000Y-35729000D01*
X99775000Y-38269000D02*
X99775000Y-38389000D01*
X97115000Y-38389000D02*
X99775000Y-38389000D01*
%TO.C,JP3*%
X78356000Y-54860000D02*
X81156000Y-54860000D01*
X81156000Y-54860000D02*
X81156000Y-56860000D01*
X81156000Y-56860000D02*
X78356000Y-56860000D01*
X78356000Y-56860000D02*
X78356000Y-54860000D01*
%TO.C,R7*%
X95985064Y-46709000D02*
X95530936Y-46709000D01*
X95985064Y-45239000D02*
X95530936Y-45239000D01*
%TO.C,U1*%
X78212000Y-48748000D02*
X78212000Y-52198000D01*
X83332000Y-48748000D02*
X83332000Y-46798000D01*
X78212000Y-48748000D02*
X78212000Y-46798000D01*
X83332000Y-48748000D02*
X83332000Y-50698000D01*
%TO.C,RV1*%
X72979000Y-63270000D02*
X79929000Y-63270000D01*
X72979000Y-60165000D02*
X72979000Y-63270000D01*
X79929000Y-60165000D02*
X79929000Y-63270000D01*
X72979000Y-58530000D02*
X79929000Y-58530000D01*
X79929000Y-58530000D02*
X79929000Y-59175000D01*
X72979000Y-58530000D02*
X72979000Y-59175000D01*
%TO.C,R8*%
X95985064Y-49249000D02*
X95530936Y-49249000D01*
X95985064Y-47779000D02*
X95530936Y-47779000D01*
%TO.C,J4*%
X72076000Y-44865600D02*
X74736000Y-44865600D01*
X74736000Y-42205600D02*
X74736000Y-43535600D01*
X73406000Y-42205600D02*
X74736000Y-42205600D01*
X74736000Y-44745600D02*
X74736000Y-44865600D01*
X72076000Y-44745600D02*
X72076000Y-44865600D01*
%TO.C,C5*%
X69569000Y-48994748D02*
X69569000Y-49517252D01*
X68099000Y-48994748D02*
X68099000Y-49517252D01*
%TD*%
%LPC*%
D15*
%TO.C,U4*%
X70849000Y-48240000D03*
X70849000Y-50170000D03*
X71899000Y-50170000D03*
X71899000Y-48240000D03*
%TD*%
D16*
%TO.C,C1*%
X78806000Y-43922000D03*
X80706000Y-43922000D03*
%TD*%
D17*
%TO.C,C6*%
X74168000Y-47527000D03*
X74168000Y-50477000D03*
%TD*%
D18*
%TO.C,J3*%
X69596000Y-43535600D03*
%TD*%
D19*
%TO.C,JP1*%
X100076000Y-56246000D03*
X100076000Y-57546000D03*
%TD*%
D20*
%TO.C,C2*%
X90866000Y-43942000D03*
X88966000Y-43942000D03*
%TD*%
D18*
%TO.C,J7*%
X85852000Y-67975800D03*
%TD*%
D21*
%TO.C,H2*%
X111379000Y-36830000D03*
%TD*%
D22*
%TO.C,R4*%
X82954500Y-59670000D03*
X81129500Y-59670000D03*
%TD*%
D23*
%TO.C,C7*%
X100281000Y-52070000D03*
X97331000Y-52070000D03*
%TD*%
D22*
%TO.C,R9*%
X96670500Y-55372000D03*
X94845500Y-55372000D03*
%TD*%
D21*
%TO.C,H4*%
X70993000Y-36830000D03*
%TD*%
D18*
%TO.C,J1*%
X69596000Y-53848000D03*
D24*
X69596000Y-56388000D03*
%TD*%
D22*
%TO.C,R10*%
X96670500Y-57658000D03*
X94845500Y-57658000D03*
%TD*%
D25*
%TO.C,J6*%
X106173000Y-55118000D03*
X113173000Y-55118000D03*
D26*
X108573000Y-58368000D03*
X111573000Y-58368000D03*
X103473000Y-51868000D03*
X104573000Y-58368000D03*
%TD*%
D27*
%TO.C,R3*%
X76708000Y-49359500D03*
X76708000Y-51184500D03*
%TD*%
D17*
%TO.C,C8*%
X71120000Y-59465000D03*
X71120000Y-62415000D03*
%TD*%
D20*
%TO.C,C3*%
X92898000Y-62992000D03*
X90998000Y-62992000D03*
%TD*%
D27*
%TO.C,R1*%
X76708000Y-45803500D03*
X76708000Y-47628500D03*
%TD*%
D21*
%TO.C,H1*%
X111379000Y-67310000D03*
%TD*%
%TO.C,H3*%
X70993000Y-67310000D03*
%TD*%
D19*
%TO.C,JP2*%
X82804000Y-57272000D03*
X82804000Y-55972000D03*
%TD*%
D22*
%TO.C,R2*%
X86510500Y-46208000D03*
X84685500Y-46208000D03*
%TD*%
D28*
%TO.C,C4*%
X74041000Y-54422000D03*
X74041000Y-56322000D03*
%TD*%
D22*
%TO.C,R6*%
X86510500Y-43922000D03*
X84685500Y-43922000D03*
%TD*%
D29*
%TO.C,U2*%
X92837000Y-46293000D03*
X91567000Y-46293000D03*
X90297000Y-46293000D03*
X89027000Y-46293000D03*
X89027000Y-51243000D03*
X90297000Y-51243000D03*
X91567000Y-51243000D03*
X92837000Y-51243000D03*
%TD*%
D18*
%TO.C,J2*%
X103398000Y-36932000D03*
D24*
X105938000Y-36932000D03*
%TD*%
D30*
%TO.C,J8*%
X83540000Y-37498000D03*
X82890000Y-37498000D03*
X82240000Y-37498000D03*
X81590000Y-37498000D03*
X80940000Y-37498000D03*
D31*
X85740000Y-34798000D03*
D32*
X84740000Y-37498000D03*
D33*
X83240000Y-34798000D03*
D34*
X79340000Y-34798000D03*
D31*
X78740000Y-34798000D03*
D34*
X85140000Y-34798000D03*
D33*
X81240000Y-34798000D03*
D32*
X79740000Y-37498000D03*
%TD*%
D22*
%TO.C,R5*%
X80668500Y-53574000D03*
X78843500Y-53574000D03*
%TD*%
D29*
%TO.C,U3*%
X92837000Y-55437000D03*
X91567000Y-55437000D03*
X90297000Y-55437000D03*
X89027000Y-55437000D03*
X89027000Y-60387000D03*
X90297000Y-60387000D03*
X91567000Y-60387000D03*
X92837000Y-60387000D03*
%TD*%
D18*
%TO.C,J5*%
X98445000Y-37059000D03*
%TD*%
D35*
%TO.C,JP3*%
X80406000Y-55860000D03*
X79106000Y-55860000D03*
%TD*%
D22*
%TO.C,R7*%
X96670500Y-45974000D03*
X94845500Y-45974000D03*
%TD*%
D36*
%TO.C,U1*%
X78867000Y-51223000D03*
X80137000Y-51223000D03*
X81407000Y-51223000D03*
X82677000Y-51223000D03*
X82677000Y-46273000D03*
X81407000Y-46273000D03*
X80137000Y-46273000D03*
X78867000Y-46273000D03*
%TD*%
D37*
%TO.C,RV1*%
X78994000Y-59670000D03*
X76454000Y-62210000D03*
X73914000Y-59670000D03*
%TD*%
D22*
%TO.C,R8*%
X96670500Y-48514000D03*
X94845500Y-48514000D03*
%TD*%
D18*
%TO.C,J4*%
X73406000Y-43535600D03*
%TD*%
D28*
%TO.C,C5*%
X68834000Y-48306000D03*
X68834000Y-50206000D03*
%TD*%
M02*
